<?xml version="1.0" encoding="utf-8"?>
<!-- Generator: Adobe Illustrator 23.0.3, SVG Export Plug-In . SVG Version: 6.00 Build 0)  -->
<svg version="1.1" id="Layer_1" xmlns="http://www.w3.org/2000/svg" xmlns:xlink="http://www.w3.org/1999/xlink" x="0px" y="0px"
	 viewBox="0 0 841.89 595.28" style="enable-background:new 0 0 841.89 595.28;" xml:space="preserve">
<style type="text/css">
	.st0{fill:#9A5D26;}
	.st1{opacity:0.5;fill:#929497;}
	.st2{fill:#F0D0B4;}
	.st3{fill:#4A7876;}
	.st4{fill:#E5C59D;}
	.st5{fill:#414142;}
	.st6{fill:#5B4B43;}
	.st7{fill:#A16834;}
	.st8{fill:#647F78;}
	.st9{fill:#A87D50;}
	.st10{fill:#A7C67C;}
	.st11{fill:#BA6F2B;}
	.st12{fill:#385E4D;}
	.st13{fill:#D09F76;}
	.st14{fill:#F4E0CD;}
</style>
<polygon class="st0" points="384.5,394.5 411.5,394.5 411.5,367.5 393.5,367.5 384.5,376.5 "/>
<rect x="375.5" y="430.5" transform="matrix(-1 -1.224647e-16 1.224647e-16 -1 859 879)" class="st1" width="108" height="18"/>
<polygon class="st2" points="366.5,376.5 384.5,376.5 402.5,349.5 384.5,349.5 "/>
<rect x="384.5" y="340.5" transform="matrix(-1 -1.224647e-16 1.224647e-16 -1 787 690)" class="st2" width="18" height="9"/>
<polygon class="st3" points="402.5,340.5 384.5,340.5 384.5,313.5 393.5,304.5 402.5,304.5 "/>
<rect x="393.5" y="232.5" transform="matrix(-1 -1.224647e-16 1.224647e-16 -1 850 528)" class="st4" width="63" height="63"/>
<polygon class="st2" points="393.5,241.5 411.5,241.5 393.5,277.5 402.5,277.5 402.5,295.5 393.5,295.5 393.5,286.5 "/>
<rect x="429.5" y="250.5" transform="matrix(-1 -1.224647e-16 1.224647e-16 -1 868 510)" class="st5" width="9" height="9"/>
<rect x="393.5" y="250.5" transform="matrix(-1 -1.224647e-16 1.224647e-16 -1 796 510)" class="st5" width="9" height="9"/>
<polygon class="st6" points="393.5,232.5 465.5,232.5 465.5,223.5 402.5,223.5 "/>
<rect x="456.5" y="250.5" transform="matrix(-1 -1.224647e-16 1.224647e-16 -1 922 519)" class="st2" width="9" height="18"/>
<rect x="456.5" y="232.5" transform="matrix(-1 -1.224647e-16 1.224647e-16 -1 922 483)" class="st6" width="9" height="18"/>
<rect x="456.5" y="268.5" transform="matrix(-1 -1.224647e-16 1.224647e-16 -1 922 555)" class="st6" width="9" height="18"/>
<rect x="402.5" y="286.5" transform="matrix(-1 -1.224647e-16 1.224647e-16 -1 832 582)" class="st7" width="27" height="9"/>
<rect x="411.5" y="295.5" transform="matrix(-1 -1.224647e-16 1.224647e-16 -1 868 600)" class="st2" width="45" height="9"/>
<polygon class="st8" points="393.5,376.5 465.5,376.5 465.5,313.5 456.5,304.5 402.5,304.5 393.5,313.5 "/>
<rect x="447.5" y="385.5" transform="matrix(-1 -1.224647e-16 1.224647e-16 -1 913 816)" class="st6" width="18" height="45"/>
<rect x="393.5" y="385.5" transform="matrix(-1 -1.224647e-16 1.224647e-16 -1 805 816)" class="st6" width="18" height="45"/>
<rect x="393.5" y="376.5" transform="matrix(-1 -1.224647e-16 1.224647e-16 -1 859 771)" class="st6" width="72" height="18"/>
<rect x="447.5" y="322.5" transform="matrix(-1 -1.224647e-16 1.224647e-16 -1 913 672)" class="st2" width="18" height="27"/>
<polygon class="st9" points="438.5,439.5 465.5,439.5 465.5,430.5 447.5,430.5 "/>
<polygon class="st9" points="384.5,439.5 411.5,439.5 411.5,430.5 393.5,430.5 "/>
<polygon class="st3" points="447.5,340.5 465.5,340.5 465.5,313.5 456.5,304.5 447.5,304.5 "/>
<polygon class="st10" points="456.5,340.5 456.5,304.5 465.5,313.5 465.5,340.5 "/>
<rect x="429.5" y="277.5" transform="matrix(-1 -1.224647e-16 1.224647e-16 -1 868 564)" class="st7" width="9" height="9"/>
<rect x="447.5" y="421.5" transform="matrix(-1 -1.224647e-16 1.224647e-16 -1 913 852)" class="st9" width="18" height="9"/>
<rect x="393.5" y="421.5" transform="matrix(-1 -1.224647e-16 1.224647e-16 -1 805 852)" class="st9" width="18" height="9"/>
<polygon class="st11" points="402.5,376.5 393.5,376.5 438.5,304.5 447.5,304.5 "/>
<rect x="393.5" y="367.5" transform="matrix(-1 -1.224647e-16 1.224647e-16 -1 859 744)" class="st7" width="72" height="9"/>
<polygon class="st2" points="429.5,376.5 447.5,376.5 465.5,349.5 447.5,349.5 "/>
<polygon class="st12" points="402.5,223.5 465.5,223.5 465.5,214.5 411.5,214.5 "/>
<rect x="411.5" y="295.5" transform="matrix(-1 -1.224647e-16 1.224647e-16 -1 832 600)" class="st13" width="9" height="9"/>
<rect x="393.5" y="232.5" class="st14" width="63" height="9"/>
<polygon class="st13" points="420.5,241.5 420.5,277.5 402.5,277.5 "/>
<polygon class="st14" points="411.5,241.5 393.5,277.5 402.5,277.5 420.5,241.5 "/>
<rect x="402.5" y="268.5" transform="matrix(-1 -1.224647e-16 1.224647e-16 -1 814 546)" class="st14" width="9" height="9"/>
</svg>
