<?xml version="1.0" encoding="utf-8"?>
<!-- Generator: Adobe Illustrator 23.0.3, SVG Export Plug-In . SVG Version: 6.00 Build 0)  -->
<svg version="1.1" id="Layer_1" xmlns="http://www.w3.org/2000/svg" xmlns:xlink="http://www.w3.org/1999/xlink" x="0px" y="0px"
	 viewBox="0 0 841.89 595.28" style="enable-background:new 0 0 841.89 595.28;" xml:space="preserve">
<style type="text/css">
	.st0{opacity:0.5;fill:#929497;}
	.st1{fill:#CED7E4;}
	.st2{fill:#75CCE5;}
	.st3{fill:#00A9D3;}
	.st4{fill:#414142;}
	.st5{fill:#BDCD31;}
	.st6{fill:#8BA63C;}
	.st7{fill:#BBE6FB;}
</style>
<g>
	<rect x="366.5" y="268.5" class="st0" width="63" height="18"/>
	<rect x="375.5" y="223.5" class="st1" width="45" height="36"/>
	<rect x="384.5" y="214.5" class="st2" width="27" height="9"/>
	<rect x="362" y="237" transform="matrix(-1.836970e-16 1 -1 -1.836970e-16 612.5 -129.5)" class="st2" width="18" height="9"/>
	<rect x="416" y="237" transform="matrix(-1.836970e-16 1 -1 -1.836970e-16 666.5 -183.5)" class="st3" width="18" height="9"/>
	<rect x="384.5" y="232.5" class="st4" width="9" height="9"/>
	<rect x="402.5" y="232.5" class="st4" width="9" height="9"/>
	<rect x="384.5" y="259.5" class="st5" width="9" height="9"/>
	<polygon class="st6" points="393.5,277.5 375.5,277.5 375.5,277.5 384.5,268.5 393.5,268.5 	"/>
	<rect x="402.5" y="259.5" class="st5" width="9" height="9"/>
	<polygon class="st6" points="420.5,277.5 402.5,277.5 402.5,268.5 411.5,268.5 420.5,277.5 	"/>
	<rect x="366.5" y="232.5" class="st7" width="9" height="9"/>
	<rect x="375.5" y="223.5" class="st7" width="9" height="9"/>
	<rect x="384.5" y="214.5" class="st7" width="9" height="9"/>
	<rect x="411.5" y="223.5" class="st2" width="9" height="9"/>
</g>
</svg>
