<?xml version="1.0" encoding="utf-8"?>
<!-- Generator: Adobe Illustrator 23.0.3, SVG Export Plug-In . SVG Version: 6.00 Build 0)  -->
<svg version="1.1" id="Layer_1" xmlns="http://www.w3.org/2000/svg" xmlns:xlink="http://www.w3.org/1999/xlink" x="0px" y="0px"
	 viewBox="0 0 841.89 595.28" style="enable-background:new 0 0 841.89 595.28;" xml:space="preserve">
<style type="text/css">
	.st0{fill:#CEA449;}
	.st1{fill:#FBCA2A;}
	.st2{fill:#C2B59B;}
	.st3{fill:#414142;}
	.st4{fill:#B7872D;}
	.st5{fill:#BBBDBF;}
	.st6{fill:#A87D50;}
	.st7{fill:#D35127;}
	.st8{fill:#D8CAAD;}
	.st9{fill:#9A8479;}
	.st10{fill:#6F8337;}
	.st11{fill:#93A64F;}
	.st12{fill:#AE6533;}
</style>
<rect x="363" y="215" class="st0" width="117" height="117"/>
<rect x="372" y="224" class="st1" width="99" height="99"/>
<g>
	<rect x="399" y="242" class="st2" width="54" height="63"/>
	<rect x="444" y="260" class="st3" width="9" height="9"/>
	<rect x="417" y="260" class="st3" width="9" height="9"/>
	<rect x="408" y="251" class="st4" width="27" height="9"/>
	<rect x="453" y="278" class="st2" width="9" height="27"/>
	<rect x="426" y="278" class="st5" width="9" height="9"/>
	<rect x="462" y="278" class="st5" width="9" height="9"/>
	<rect x="453" y="269" class="st6" width="9" height="9"/>
	<rect x="435" y="269" class="st6" width="9" height="9"/>
	<rect x="417" y="287" class="st7" width="54" height="9"/>
	<rect x="444" y="251" class="st4" width="18" height="9"/>
	<rect x="417" y="242" class="st8" width="36" height="9"/>
	<rect x="399" y="233" class="st5" width="9" height="18"/>
	<rect x="435" y="233" class="st5" width="9" height="9"/>
	<polygon class="st9" points="399,305 390,305 390,260 399,251 	"/>
	<polygon class="st2" points="390,314 381,314 381,278 390,269 	"/>
	<polygon class="st10" points="390,314 471,314 462,305 390,305 	"/>
</g>
<rect x="372" y="314" class="st11" width="99" height="9"/>
<rect x="390" y="314" class="st10" width="9" height="9"/>
<rect x="408" y="314" class="st10" width="9" height="9"/>
<rect x="444" y="314" class="st10" width="9" height="9"/>
<rect x="417" y="314" class="st12" width="27" height="9"/>
</svg>
