<?xml version="1.0" encoding="utf-8"?>
<!-- Generator: Adobe Illustrator 23.0.3, SVG Export Plug-In . SVG Version: 6.00 Build 0)  -->
<svg version="1.1" id="Layer_1" xmlns="http://www.w3.org/2000/svg" xmlns:xlink="http://www.w3.org/1999/xlink" x="0px" y="0px"
	 viewBox="0 0 841.89 595.28" style="enable-background:new 0 0 841.89 595.28;" xml:space="preserve">
<style type="text/css">
	.st0{fill:#A16834;}
	.st1{fill:#85562A;}
	.st2{fill:#8B592D;}
	.st3{fill:#BA6F2B;}
	.st4{fill:#FBCD36;}
	.st5{fill:#CAB78C;}
	.st6{fill:#F4E09C;}
	.st7{fill:#C2922E;}
	.st8{fill:#D1AD2B;}
	.st9{fill:#E2C676;}
	.st10{fill:#C9974D;}
</style>
<g>
	<rect x="411" y="249.5" class="st0" width="99" height="72"/>
	<rect x="366" y="249.5" class="st1" width="45" height="72"/>
	<polygon class="st2" points="411,249.5 366,249.5 366,222.5 375,213.5 411,213.5 	"/>
	<polygon class="st3" points="510,249.5 411,249.5 411,222.5 402,213.5 501,213.5 510,222.5 	"/>
	<rect x="483" y="249.5" class="st4" width="18" height="72"/>
	<rect x="429" y="249.5" class="st4" width="18" height="72"/>
	<polygon class="st4" points="447,249.5 429,249.5 429,222.5 420,213.5 438,213.5 447,222.5 	"/>
	<polygon class="st4" points="501,249.5 483,249.5 483,222.5 474,213.5 492,213.5 501,222.5 	"/>
	<rect x="447" y="249.5" class="st4" width="36" height="27"/>
	<path class="st4" d="M474,222.5"/>
	<polygon class="st5" points="402,213.5 411,222.5 510,222.5 501,213.5 	"/>
	<polygon class="st6" points="474,213.5 483,222.5 501,222.5 492,213.5 	"/>
	<polygon class="st6" points="420,213.5 429,222.5 447,222.5 438,213.5 	"/>
	<rect x="456" y="249.5" class="st7" width="18" height="18"/>
	<rect x="366" y="249.5" class="st8" width="45" height="9"/>
	<rect x="411" y="249.5" class="st4" width="18" height="9"/>
	<rect x="501" y="249.5" class="st4" width="9" height="9"/>
	<rect x="366" y="240.5" class="st8" width="45" height="9"/>
	<rect x="411" y="240.5" class="st4" width="18" height="9"/>
	<rect x="501" y="240.5" class="st4" width="9" height="9"/>
	<rect x="456" y="249.5" class="st9" width="9" height="9"/>
	<rect x="447" y="240.5" class="st4" width="36" height="9"/>
	<rect x="456" y="240.5" class="st10" width="18" height="9"/>
</g>
</svg>
