<?xml version="1.0" encoding="utf-8"?>
<!-- Generator: Adobe Illustrator 23.0.3, SVG Export Plug-In . SVG Version: 6.00 Build 0)  -->
<svg version="1.1" id="Layer_1" xmlns="http://www.w3.org/2000/svg" xmlns:xlink="http://www.w3.org/1999/xlink" x="0px" y="0px"
	 viewBox="0 0 841.89 595.28" style="enable-background:new 0 0 841.89 595.28;" xml:space="preserve">
<style type="text/css">
	.st0{fill:#CEA449;}
	.st1{fill:#DFA42B;}
	.st2{fill:#C2922E;}
	.st3{fill:#726659;}
	.st4{fill:#28A8E0;}
	.st5{fill:#1D76BB;}
	.st6{fill:#754D29;}
</style>
<rect x="367.5" y="254" class="st0" width="54" height="63"/>
<rect x="367.5" y="227" class="st1" width="54" height="36"/>
<rect x="367.5" y="254" class="st2" width="54" height="9"/>
<rect x="376.5" y="218" class="st1" width="36" height="9"/>
<polygon class="st3" points="376.5,227 376.5,245 385.5,245 385.5,236 403.5,236 403.5,245 412.5,245 412.5,227 "/>
<polygon class="st2" points="412.5,326 376.5,326 367.5,317 421.5,317 "/>
<rect x="376.5" y="272" class="st4" width="36" height="27"/>
<polygon class="st5" points="376.5,263 376.5,272 385.5,272 "/>
<polygon class="st5" points="412.5,272 412.5,263 403.5,272 "/>
<rect x="376.5" y="281" class="st6" width="9" height="9"/>
<rect x="403.5" y="281" class="st6" width="9" height="9"/>
</svg>
