<?xml version="1.0" encoding="utf-8"?>
<!-- Generator: Adobe Illustrator 23.0.3, SVG Export Plug-In . SVG Version: 6.00 Build 0)  -->
<svg version="1.1" id="Layer_1" xmlns="http://www.w3.org/2000/svg" xmlns:xlink="http://www.w3.org/1999/xlink" x="0px" y="0px"
	 viewBox="0 0 841.89 595.28" style="enable-background:new 0 0 841.89 595.28;" xml:space="preserve">
<style type="text/css">
	.st0{fill:#A2815B;}
	.st1{fill:#DDBF9A;}
	.st2{fill:#73593D;}
	.st3{fill:#C3996B;}
</style>
<g>
	<rect x="417" y="161" transform="matrix(6.123234e-17 -1 1 6.123234e-17 202 677)" class="st0" width="45" height="153"/>
	<rect x="435" y="152" transform="matrix(6.123234e-17 -1 1 6.123234e-17 220 659)" class="st1" width="9" height="135"/>
	<rect x="358.5" y="237.5" transform="matrix(6.123234e-17 -1 1 6.123234e-17 134.5 618.5)" class="st2" width="36" height="9"/>
	<rect x="484.5" y="237.5" transform="matrix(6.123234e-17 -1 1 6.123234e-17 260.5 744.5)" class="st2" width="36" height="9"/>
	<rect x="421.5" y="237.5" transform="matrix(6.123234e-17 -1 1 6.123234e-17 197.5 681.5)" class="st2" width="36" height="9"/>
	<rect x="435" y="161" transform="matrix(6.123234e-17 -1 1 6.123234e-17 211 668)" class="st2" width="9" height="135"/>
	<rect x="435" y="188" transform="matrix(6.123234e-17 -1 1 6.123234e-17 184 695)" class="st2" width="9" height="135"/>
	<rect x="403.5" y="210.5" transform="matrix(6.123234e-17 -1 1 6.123234e-17 170.5 645.5)" class="st3" width="9" height="54"/>
	<rect x="466.5" y="210.5" transform="matrix(6.123234e-17 -1 1 6.123234e-17 233.5 708.5)" class="st3" width="9" height="54"/>
</g>
</svg>
