<?xml version="1.0" encoding="utf-8"?>
<!-- Generator: Adobe Illustrator 23.0.3, SVG Export Plug-In . SVG Version: 6.00 Build 0)  -->
<svg version="1.1" id="Layer_1" xmlns="http://www.w3.org/2000/svg" xmlns:xlink="http://www.w3.org/1999/xlink" x="0px" y="0px"
	 viewBox="0 0 841.89 595.28" style="enable-background:new 0 0 841.89 595.28;" xml:space="preserve">
<style type="text/css">
	.st0{fill:#A16834;}
	.st1{fill:#C9974D;}
	.st2{fill:#FBCA2A;}
	.st3{fill:#BD8648;}
	.st4{fill:#FFD694;}
	.st5{fill:#C3A470;}
	.st6{fill:#88572B;}
	.st7{fill:#569484;}
	.st8{fill:#4A7876;}
</style>
<g>
	<rect x="362" y="245" class="st0" width="603" height="99"/>
	<rect x="596" y="272" class="st1" width="54" height="54"/>
	<rect x="533" y="272" class="st1" width="54" height="54"/>
	<rect x="470" y="272" class="st1" width="54" height="54"/>
	<rect x="362" y="236" class="st2" width="603" height="9"/>
	<rect x="596" y="272" class="st3" width="54" height="9"/>
	<rect x="533" y="272" class="st3" width="54" height="9"/>
	<rect x="470" y="272" class="st3" width="54" height="9"/>
	<rect x="470" y="281" class="st3" width="9" height="45"/>
	<rect x="533" y="281" class="st3" width="9" height="45"/>
	<rect x="596" y="281" class="st3" width="9" height="45"/>
	<rect x="407" y="218" class="st0" width="180" height="36"/>
	<rect x="398" y="218" class="st2" width="198" height="9"/>
	<polygon class="st4" points="398,218 407,227 407,245 398,236 	"/>
	<polygon class="st5" points="587,227 596,218 596,236 587,245 	"/>
	<rect x="362" y="254" class="st6" width="72" height="9"/>
	<rect x="452" y="254" class="st6" width="45" height="9"/>
	<rect x="551" y="254" class="st6" width="54" height="9"/>
	<rect x="614" y="254" class="st6" width="27" height="9"/>
	<rect x="902" y="308" class="st6" width="54" height="9"/>
	<rect x="668" y="263" class="st7" width="252" height="63"/>
	<rect x="668" y="263" class="st8" width="252" height="9"/>
	<rect x="668" y="272" class="st8" width="9" height="54"/>
	<rect x="380" y="281" class="st6" width="54" height="9"/>
	<rect x="407" y="272" class="st1" width="54" height="54"/>
	<rect x="407" y="272" class="st3" width="54" height="9"/>
	<rect x="407" y="281" class="st3" width="9" height="45"/>
	<rect x="659" y="272" class="st6" width="9" height="9"/>
	<rect x="443" y="236" class="st6" width="72" height="9"/>
	<rect x="533" y="236" class="st6" width="27" height="9"/>
	<rect x="362" y="308" class="st6" width="27" height="9"/>
	<rect x="938" y="254" class="st6" width="27" height="9"/>
	<rect x="362" y="308" class="st6" width="27" height="9"/>
	<rect x="920" y="272" class="st6" width="45" height="9"/>
	<rect x="722" y="254" class="st6" width="90" height="9"/>
	<rect x="380" y="335" class="st6" width="72" height="9"/>
	<rect x="470" y="335" class="st6" width="45" height="9"/>
	<rect x="569" y="335" class="st6" width="54" height="9"/>
	<rect x="632" y="335" class="st6" width="27" height="9"/>
	<rect x="686" y="335" class="st6" width="72" height="9"/>
	<rect x="776" y="335" class="st6" width="45" height="9"/>
	<rect x="875" y="335" class="st6" width="54" height="9"/>
	<rect x="938" y="335" class="st6" width="27" height="9"/>
	<rect x="947" y="290" class="st6" width="9" height="9"/>
</g>
</svg>
