<?xml version="1.0" encoding="utf-8"?>
<!-- Generator: Adobe Illustrator 23.0.3, SVG Export Plug-In . SVG Version: 6.00 Build 0)  -->
<svg version="1.1" id="Layer_1" xmlns="http://www.w3.org/2000/svg" xmlns:xlink="http://www.w3.org/1999/xlink" x="0px" y="0px"
	 viewBox="0 0 841.89 595.28" style="enable-background:new 0 0 841.89 595.28;" xml:space="preserve">
<style type="text/css">
	.st0{opacity:0.5;fill:#929497;enable-background:new    ;}
	.st1{fill:#C2B59B;}
	.st2{fill:#414142;}
	.st3{fill:#B7872D;}
	.st4{fill:#E6E7E7;}
	.st5{fill:#A87D50;}
	.st6{fill:#8A5E3C;}
	.st7{fill:#D8CAAD;}
	.st8{fill:#BBBDBF;}
	.st9{fill:#9A8479;}
	.st10{fill:#93A64F;}
	.st11{fill:#6F8337;}
	.st12{fill:#91AB3C;}
	.st13{fill:#A74E2B;}
	.st14{fill:#4B311A;}
	.st15{fill:#754D29;}
	.st16{opacity:0.57;fill:#808184;enable-background:new    ;}
	.st17{fill:#C3996B;}
	.st18{fill:#5B4B43;}
	.st19{fill:#627533;}
	.st20{fill:#AE6533;}
	.st21{fill:#808184;}
</style>
<rect x="362.5" y="408.5" class="st0" width="126" height="18"/>
<rect x="407.5" y="228.5" class="st1" width="54" height="63"/>
<rect x="452.5" y="246.5" class="st2" width="9" height="9"/>
<rect x="425.5" y="246.5" class="st2" width="9" height="9"/>
<rect x="416.5" y="237.5" class="st3" width="27" height="9"/>
<rect x="461.5" y="264.5" class="st1" width="9" height="27"/>
<rect x="434.5" y="264.5" class="st4" width="9" height="9"/>
<rect x="470.5" y="264.5" class="st4" width="9" height="9"/>
<rect x="461.5" y="255.5" class="st5" width="9" height="9"/>
<rect x="443.5" y="255.5" class="st5" width="9" height="9"/>
<rect x="425.5" y="273.5" class="st6" width="54" height="9"/>
<rect x="452.5" y="237.5" class="st3" width="18" height="9"/>
<rect x="425.5" y="228.5" class="st7" width="36" height="9"/>
<rect x="407.5" y="219.5" class="st8" width="9" height="18"/>
<rect x="443.5" y="219.5" class="st8" width="9" height="9"/>
<polygon class="st9" points="407.5,291.5 398.5,291.5 398.5,246.5 407.5,237.5 "/>
<polygon class="st1" points="398.5,300.5 389.5,300.5 389.5,264.5 398.5,255.5 "/>
<rect x="389.5" y="291.5" class="st10" width="72" height="90"/>
<polygon class="st11" points="407.5,327.5 371.5,327.5 371.5,300.5 380.5,291.5 407.5,291.5 "/>
<polygon class="st11" points="407.5,300.5 479.5,300.5 470.5,291.5 407.5,291.5 "/>
<polygon class="st12" points="398.5,318.5 371.5,318.5 371.5,300.5 380.5,291.5 398.5,291.5 "/>
<rect x="389.5" y="381.5" class="st13" width="18" height="18"/>
<rect x="443.5" y="381.5" class="st13" width="18" height="18"/>
<rect x="461.5" y="300.5" class="st11" width="18" height="27"/>
<rect x="389.5" y="408.5" class="st14" width="36" height="9"/>
<rect x="371.5" y="327.5" class="st1" width="18" height="36"/>
<rect x="461.5" y="327.5" class="st1" width="18" height="36"/>
<rect x="389.5" y="345.5" class="st6" width="72" height="18"/>
<polygon class="st15" points="425.5,408.5 389.5,408.5 389.5,399.5 416.5,399.5 "/>
<rect x="443.5" y="408.5" class="st14" width="36" height="9"/>
<polygon class="st15" points="479.5,408.5 443.5,408.5 443.5,399.5 470.5,399.5 "/>
<rect x="461.5" y="300.5" class="st16" width="9" height="63"/>
<polygon class="st16" points="380.5,363.5 371.5,363.5 371.5,300.5 380.5,291.5 380.5,291.5 "/>
<rect x="389.5" y="381.5" class="st17" width="18" height="9"/>
<rect x="443.5" y="381.5" class="st17" width="18" height="9"/>
<rect x="416.5" y="345.5" class="st18" width="36" height="27"/>
<rect x="425.5" y="345.5" class="st17" width="18" height="18"/>
<rect x="416.5" y="300.5" class="st19" width="36" height="36"/>
<rect x="425.5" y="300.5" class="st20" width="18" height="27"/>
<rect x="371.5" y="363.5" class="st21" width="18" height="18"/>
<rect x="461.5" y="363.5" class="st21" width="18" height="18"/>
</svg>
