<?xml version="1.0" encoding="utf-8"?>
<!-- Generator: Adobe Illustrator 23.0.3, SVG Export Plug-In . SVG Version: 6.00 Build 0)  -->
<svg version="1.1" id="Layer_1" xmlns="http://www.w3.org/2000/svg" xmlns:xlink="http://www.w3.org/1999/xlink" x="0px" y="0px"
	 viewBox="0 0 841.89 595.28" style="enable-background:new 0 0 841.89 595.28;" xml:space="preserve">
<style type="text/css">
	.st0{opacity:0.5;fill:#929497;}
	.st1{fill:#929497;}
	.st2{fill:#808184;}
	.st3{fill:#414142;}
	.st4{fill:#BDCD31;}
	.st5{fill:#8BA63C;}
	.st6{fill:#BBBDBF;}
	.st7{fill:#6E6F71;}
</style>
<g>
	<rect x="362" y="268.5" class="st0" width="63" height="18"/>
	<rect x="371" y="223.5" class="st1" width="45" height="36"/>
	<rect x="380" y="214.5" class="st1" width="27" height="9"/>
	<rect x="357.5" y="237" transform="matrix(-1.836970e-16 1 -1 -1.836970e-16 608 -125)" class="st1" width="18" height="9"/>
	<rect x="411.5" y="237" transform="matrix(-1.836970e-16 1 -1 -1.836970e-16 662 -179)" class="st2" width="18" height="9"/>
	<rect x="380" y="232.5" class="st3" width="9" height="9"/>
	<rect x="398" y="232.5" class="st3" width="9" height="9"/>
	<rect x="380" y="259.5" class="st4" width="9" height="9"/>
	<polygon class="st5" points="389,277.5 371,277.5 371,277.5 380,268.5 389,268.5 	"/>
	<rect x="398" y="259.5" class="st4" width="9" height="9"/>
	<polygon class="st5" points="416,277.5 398,277.5 398,268.5 407,268.5 416,277.5 	"/>
	<rect x="362" y="232.5" class="st6" width="9" height="9"/>
	<rect x="371" y="223.5" class="st6" width="9" height="9"/>
	<rect x="380" y="214.5" class="st6" width="9" height="9"/>
	<rect x="407" y="223.5" class="st7" width="9" height="9"/>
</g>
</svg>
