<?xml version="1.0" encoding="utf-8"?>
<!-- Generator: Adobe Illustrator 23.0.3, SVG Export Plug-In . SVG Version: 6.00 Build 0)  -->
<svg version="1.1" id="Layer_1" xmlns="http://www.w3.org/2000/svg" xmlns:xlink="http://www.w3.org/1999/xlink" x="0px" y="0px"
	 viewBox="0 0 841.89 595.28" style="enable-background:new 0 0 841.89 595.28;" xml:space="preserve">
<style type="text/css">
	.st0{opacity:0.5;fill:#929497;}
	.st1{fill:#D0D2D3;}
	.st2{fill:#595A5C;}
	.st3{fill:#8A5E3C;}
	.st4{fill:#929497;}
	.st5{fill:#A87D50;}
	.st6{fill:#754D29;}
	.st7{fill:#603A17;}
	.st8{fill:#3B2416;}
	.st9{fill:#FBCD36;}
	.st10{fill:#CEA449;}
</style>
<rect x="376" y="476" class="st0" width="108" height="18"/>
<g>
	<rect x="421" y="233" class="st1" width="54" height="54"/>
	<rect x="457" y="242" class="st2" width="18" height="18"/>
	<rect x="430" y="242" class="st2" width="18" height="18"/>
	<rect x="430" y="278" class="st2" width="9" height="9"/>
	<rect x="448" y="278" class="st2" width="9" height="9"/>
	<rect x="466" y="278" class="st2" width="9" height="9"/>
	<polygon class="st3" points="475,224 403,224 403,215 466,215 	"/>
	<rect x="403" y="224" class="st3" width="9" height="63"/>
	<rect x="412" y="224" class="st4" width="9" height="63"/>
	<rect x="421" y="224" class="st4" width="54" height="9"/>
	<rect x="394" y="287" class="st3" width="81" height="189"/>
	<rect x="394" y="224" class="st5" width="9" height="63"/>
	<rect x="385" y="287" class="st6" width="9" height="189"/>
	<rect x="403" y="377" class="st7" width="72" height="9"/>
	<rect x="367" y="296" class="st3" width="18" height="63"/>
	<rect x="376" y="332" class="st3" width="72" height="36"/>
	<rect x="385" y="332" class="st5" width="54" height="9"/>
	<rect x="421" y="332" class="st6" width="18" height="45"/>
	<rect x="475" y="332" class="st5" width="18" height="9"/>
	<rect x="493" y="332" class="st6" width="18" height="45"/>
	<rect x="475" y="341" class="st3" width="18" height="36"/>
	<rect x="430" y="332" class="st1" width="27" height="18"/>
	<rect x="502" y="332" class="st1" width="27" height="18"/>
	<rect x="412" y="287" class="st6" width="63" height="9"/>
	<rect x="385" y="476" class="st6" width="90" height="9"/>
	<rect x="430" y="332" class="st4" width="9" height="18"/>
	<rect x="502" y="332" class="st4" width="9" height="18"/>
	<rect x="376" y="377" class="st7" width="36" height="36"/>
	<rect x="403" y="377" class="st8" width="9" height="36"/>
	<rect x="385" y="395" class="st9" width="9" height="18"/>
	<rect x="385" y="395" class="st10" width="9" height="9"/>
	<rect x="448" y="260" class="st2" width="9" height="9"/>
</g>
</svg>
