<?xml version="1.0" encoding="utf-8"?>
<!-- Generator: Adobe Illustrator 23.0.3, SVG Export Plug-In . SVG Version: 6.00 Build 0)  -->
<svg version="1.1" id="Layer_1" xmlns="http://www.w3.org/2000/svg" xmlns:xlink="http://www.w3.org/1999/xlink" x="0px" y="0px"
	 viewBox="0 0 841.89 595.28" style="enable-background:new 0 0 841.89 595.28;" xml:space="preserve">
<style type="text/css">
	.st0{opacity:0.5;fill:#929497;}
	.st1{fill:#CEA449;}
	.st2{fill:#A87D50;}
	.st3{fill:#5B4B43;}
	.st4{fill:#8A5E3C;}
	.st5{fill:#754D29;}
	.st6{fill:#00A79C;}
	.st7{fill:#FBCD36;}
	.st8{fill:#C2B59B;}
</style>
<g>
	<rect x="367.5" y="314" class="st0" width="126" height="18"/>
	<rect x="376.5" y="251" class="st1" width="90" height="45"/>
	<polygon class="st1" points="493.5,269 448.5,269 448.5,233 502.5,233 502.5,260 	"/>
	<rect x="457.5" y="224" class="st2" width="9" height="9"/>
	<rect x="493.5" y="224" class="st2" width="9" height="9"/>
	<rect x="466.5" y="242" class="st3" width="9" height="9"/>
	<rect x="484.5" y="242" class="st3" width="9" height="9"/>
	<rect x="475.5" y="251" class="st3" width="9" height="9"/>
	<rect x="448.5" y="242" class="st4" width="9" height="9"/>
	<rect x="493.5" y="242" class="st4" width="9" height="9"/>
	<rect x="448.5" y="260" class="st4" width="9" height="9"/>
	<polygon class="st1" points="448.5,233 457.5,224 457.5,233 	"/>
	<polygon class="st1" points="484.5,233 493.5,224 493.5,233 	"/>
	<rect x="466.5" y="251" class="st2" width="9" height="18"/>
	<rect x="484.5" y="251" class="st2" width="9" height="18"/>
	<rect x="430.5" y="251" class="st4" width="9" height="27"/>
	<rect x="412.5" y="251" class="st2" width="9" height="27"/>
	<rect x="394.5" y="251" class="st4" width="9" height="27"/>
	<rect x="376.5" y="215" class="st1" width="9" height="36"/>
	<rect x="457.5" y="296" class="st1" width="9" height="27"/>
	<rect x="439.5" y="296" class="st2" width="9" height="27"/>
	<rect x="394.5" y="296" class="st1" width="9" height="27"/>
	<rect x="385.5" y="296" class="st1" width="9" height="9"/>
	<rect x="376.5" y="296" class="st2" width="9" height="27"/>
	<polygon class="st4" points="493.5,260 493.5,269 502.5,260 	"/>
	<rect x="466.5" y="269" class="st1" width="9" height="18"/>
	<rect x="475.5" y="233" class="st4" width="9" height="9"/>
	<rect x="376.5" y="233" class="st4" width="9" height="9"/>
	<rect x="376.5" y="215" class="st4" width="9" height="9"/>
	<rect x="394.5" y="305" class="st4" width="9" height="9"/>
	<rect x="457.5" y="305" class="st4" width="9" height="9"/>
	<rect x="376.5" y="305" class="st5" width="9" height="9"/>
	<rect x="439.5" y="305" class="st5" width="9" height="9"/>
	<rect x="466.5" y="269" class="st6" width="9" height="9"/>
	<rect x="457.5" y="260" class="st6" width="9" height="9"/>
	<rect x="448.5" y="251" class="st6" width="9" height="9"/>
	<rect x="466.5" y="278" class="st7" width="9" height="9"/>
	<rect x="484.5" y="260" class="st8" width="9" height="9"/>
	<rect x="466.5" y="260" class="st8" width="9" height="9"/>
</g>
</svg>
