<?xml version="1.0" encoding="utf-8"?>
<!-- Generator: Adobe Illustrator 23.0.3, SVG Export Plug-In . SVG Version: 6.00 Build 0)  -->
<svg version="1.1" id="Layer_1" xmlns="http://www.w3.org/2000/svg" xmlns:xlink="http://www.w3.org/1999/xlink" x="0px" y="0px"
	 viewBox="0 0 841.89 595.28" style="enable-background:new 0 0 841.89 595.28;" xml:space="preserve">
<style type="text/css">
	.st0{opacity:0.5;fill:#929497;}
	.st1{fill:#F0D0B4;}
	.st2{fill:#4A7876;}
	.st3{fill:#D09F76;}
	.st4{fill:#414142;}
	.st5{fill:#5B4B43;}
	.st6{fill:#A16834;}
	.st7{fill:#647F78;}
	.st8{fill:#A87D50;}
	.st9{fill:#A7C67C;}
	.st10{fill:#BA6F2B;}
	.st11{fill:#9A5D26;}
	.st12{fill:#385E4D;}
	.st13{fill:#F4E0CD;}
</style>
<rect x="363" y="435" class="st0" width="108" height="18"/>
<g>
	<polygon class="st1" points="480,381 462,381 444,354 462,354 	"/>
	<rect x="444" y="345" class="st1" width="18" height="9"/>
	<polygon class="st2" points="444,345 462,345 462,318 453,309 444,309 	"/>
	<rect x="390" y="237" class="st1" width="63" height="63"/>
	<polygon class="st3" points="453,246 435,246 453,282 444,282 444,300 453,300 453,291 	"/>
	<rect x="408" y="255" class="st4" width="9" height="9"/>
	<rect x="444" y="255" class="st4" width="9" height="9"/>
	<polygon class="st5" points="453,237 381,237 381,228 444,228 	"/>
	<rect x="381" y="255" class="st1" width="9" height="18"/>
	<rect x="381" y="237" class="st5" width="9" height="18"/>
	<rect x="381" y="273" class="st5" width="9" height="18"/>
	<rect x="417" y="291" class="st6" width="27" height="9"/>
	<rect x="390" y="300" class="st1" width="45" height="9"/>
	<polygon class="st7" points="453,381 381,381 381,318 390,309 444,309 453,318 	"/>
	<rect x="381" y="390" class="st5" width="18" height="45"/>
	<rect x="435" y="390" class="st5" width="18" height="45"/>
	<rect x="381" y="381" class="st5" width="72" height="18"/>
	<rect x="381" y="327" class="st1" width="18" height="27"/>
	<polygon class="st8" points="408,444 381,444 381,435 399,435 	"/>
	<polygon class="st8" points="462,444 435,444 435,435 453,435 	"/>
	<polygon class="st2" points="399,345 381,345 381,318 390,309 399,309 	"/>
	<polygon class="st9" points="390,345 390,309 381,318 381,345 	"/>
	<rect x="408" y="282" class="st6" width="9" height="9"/>
	<rect x="381" y="426" class="st8" width="18" height="9"/>
	<rect x="435" y="426" class="st8" width="18" height="9"/>
	<polygon class="st10" points="408,381 399,381 444,309 453,309 	"/>
	<rect x="381" y="372" class="st6" width="72" height="9"/>
	<rect x="381" y="372" class="st11" width="27" height="27"/>
	<polygon class="st10" points="399,399 372,399 372,381 381,372 399,372 	"/>
	<polygon class="st1" points="417,381 399,381 381,354 399,354 	"/>
	<rect x="381" y="381" class="st11" width="9" height="18"/>
	<polygon class="st12" points="444,228 381,228 381,219 435,219 	"/>
	<rect x="426" y="300" class="st3" width="9" height="9"/>
	<polygon class="st13" points="435,246 453,282 444,282 426,246 	"/>
	<rect x="390" y="237" class="st13" width="63" height="9"/>
	<rect x="435" y="273" class="st13" width="9" height="9"/>
</g>
</svg>
