<?xml version="1.0" encoding="utf-8"?>
<!-- Generator: Adobe Illustrator 23.0.3, SVG Export Plug-In . SVG Version: 6.00 Build 0)  -->
<svg version="1.1" id="Layer_1" xmlns="http://www.w3.org/2000/svg" xmlns:xlink="http://www.w3.org/1999/xlink" x="0px" y="0px"
	 viewBox="0 0 841.89 595.28" style="enable-background:new 0 0 841.89 595.28;" xml:space="preserve">
<style type="text/css">
	.st0{fill:#CEA449;}
	.st1{fill:#FBCA2A;}
	.st2{fill:#F0D0B4;}
	.st3{fill:#D09F76;}
	.st4{fill:#414142;}
	.st5{fill:#5B4B43;}
	.st6{fill:#A16834;}
	.st7{fill:#385E4D;}
	.st8{fill:#F4E0CD;}
</style>
<rect x="363" y="215" class="st0" width="117" height="117"/>
<rect x="372" y="224" class="st1" width="99" height="99"/>
<g>
	<rect x="399" y="251" class="st2" width="63" height="63"/>
	<polygon class="st3" points="462,260 444,260 462,296 453,296 453,314 462,314 462,305 	"/>
	<rect x="417" y="269" class="st4" width="9" height="9"/>
	<rect x="453" y="269" class="st4" width="9" height="9"/>
	<polygon class="st5" points="462,251 390,251 390,242 453,242 	"/>
	<rect x="390" y="269" class="st2" width="9" height="18"/>
	<rect x="390" y="251" class="st5" width="9" height="18"/>
	<rect x="390" y="287" class="st5" width="9" height="18"/>
	<rect x="426" y="305" class="st6" width="27" height="9"/>
	<rect x="399" y="314" class="st2" width="45" height="9"/>
	<rect x="417" y="296" class="st6" width="9" height="9"/>
	<polygon class="st7" points="453,242 390,242 390,233 444,233 	"/>
	<rect x="435" y="314" class="st3" width="9" height="9"/>
	<polygon class="st8" points="444,260 462,296 453,296 435,260 	"/>
	<rect x="399" y="251" class="st8" width="63" height="9"/>
	<rect x="444" y="287" class="st8" width="9" height="9"/>
</g>
</svg>
