<?xml version="1.0" encoding="utf-8"?>
<!-- Generator: Adobe Illustrator 23.0.3, SVG Export Plug-In . SVG Version: 6.00 Build 0)  -->
<svg version="1.1" id="Layer_1" xmlns="http://www.w3.org/2000/svg" xmlns:xlink="http://www.w3.org/1999/xlink" x="0px" y="0px"
	 viewBox="0 0 841.89 595.28" style="enable-background:new 0 0 841.89 595.28;" xml:space="preserve">
<style type="text/css">
	.st0{fill:#CEA449;}
	.st1{fill:#FBCA2A;}
	.st2{fill:#A87D50;}
	.st3{fill:#5B4B43;}
	.st4{fill:#8A5E3C;}
	.st5{fill:#00A79C;}
	.st6{fill:#FBCD36;}
	.st7{fill:#C2B59B;}
</style>
<rect x="363" y="215" class="st0" width="117" height="117"/>
<rect x="372" y="224" class="st1" width="99" height="99"/>
<rect x="372" y="277.56" class="st0" width="54" height="45"/>
<polygon class="st0" points="453,295.56 408,295.56 408,259.56 462,259.56 462,286.56 "/>
<rect x="417" y="250.56" class="st2" width="9" height="9"/>
<rect x="453" y="250.56" class="st2" width="9" height="9"/>
<rect x="426" y="268.56" class="st3" width="9" height="9"/>
<rect x="444" y="268.56" class="st3" width="9" height="9"/>
<rect x="435" y="277.56" class="st3" width="9" height="9"/>
<rect x="408" y="268.56" class="st4" width="9" height="9"/>
<rect x="453" y="268.56" class="st4" width="9" height="9"/>
<rect x="408" y="286.56" class="st4" width="9" height="9"/>
<polygon class="st0" points="408,259.56 417,250.56 417,259.56 "/>
<polygon class="st0" points="444,259.56 453,250.56 453,259.56 "/>
<rect x="426" y="277.56" class="st2" width="9" height="18"/>
<rect x="444" y="277.56" class="st2" width="9" height="18"/>
<rect x="390" y="277.56" class="st4" width="9" height="27"/>
<rect x="372" y="277.56" class="st2" width="9" height="27"/>
<polygon class="st4" points="453,286.56 453,295.56 462,286.56 "/>
<rect x="426" y="295.56" class="st0" width="9" height="18"/>
<rect x="435" y="259.56" class="st4" width="9" height="9"/>
<rect x="426" y="295.56" class="st5" width="9" height="9"/>
<rect x="417" y="286.56" class="st5" width="9" height="9"/>
<rect x="408" y="277.56" class="st5" width="9" height="9"/>
<rect x="426" y="304.56" class="st6" width="9" height="9"/>
<rect x="444" y="286.56" class="st7" width="9" height="9"/>
<rect x="426" y="286.56" class="st7" width="9" height="9"/>
<rect x="372" y="314" class="st2" width="54" height="9"/>
</svg>
