<?xml version="1.0" encoding="utf-8"?>
<!-- Generator: Adobe Illustrator 23.0.3, SVG Export Plug-In . SVG Version: 6.00 Build 0)  -->
<svg version="1.1" id="Layer_1" xmlns="http://www.w3.org/2000/svg" xmlns:xlink="http://www.w3.org/1999/xlink" x="0px" y="0px"
	 viewBox="0 0 841.89 595.28" style="enable-background:new 0 0 841.89 595.28;" xml:space="preserve">
<style type="text/css">
	.st0{fill:#CEA449;}
	.st1{fill:#FBCA2A;}
	.st2{fill:#D0D2D3;}
	.st3{fill:#595A5C;}
	.st4{fill:#8A5E3C;}
	.st5{fill:#929497;}
	.st6{fill:#A87D50;}
	.st7{fill:#754D29;}
</style>
<rect x="363" y="215" class="st0" width="117" height="117"/>
<rect x="372" y="224" class="st1" width="99" height="99"/>
<g>
	<rect x="408" y="251" class="st2" width="54" height="54"/>
	<rect x="444" y="260" class="st3" width="18" height="18"/>
	<rect x="417" y="260" class="st3" width="18" height="18"/>
	<rect x="417" y="296" class="st3" width="9" height="9"/>
	<rect x="435" y="296" class="st3" width="9" height="9"/>
	<rect x="453" y="296" class="st3" width="9" height="9"/>
	<polygon class="st4" points="462,242 390,242 390,233 453,233 	"/>
	<rect x="390" y="242" class="st4" width="9" height="63"/>
	<rect x="399" y="242" class="st5" width="9" height="63"/>
	<rect x="408" y="242" class="st5" width="54" height="9"/>
	<rect x="381" y="242" class="st6" width="9" height="63"/>
	<rect x="435" y="278" class="st3" width="9" height="9"/>
	<rect x="390" y="305" class="st7" width="72" height="9"/>
</g>
</svg>
