<?xml version="1.0" encoding="utf-8"?>
<!-- Generator: Adobe Illustrator 23.0.3, SVG Export Plug-In . SVG Version: 6.00 Build 0)  -->
<svg version="1.1" id="Layer_1" xmlns="http://www.w3.org/2000/svg" xmlns:xlink="http://www.w3.org/1999/xlink" x="0px" y="0px"
	 viewBox="0 0 841.89 595.28" style="enable-background:new 0 0 841.89 595.28;" xml:space="preserve">
<style type="text/css">
	.st0{fill:#FECF0C;}
	.st1{fill:#A9BB3B;}
	.st2{fill:#D35127;}
	.st3{fill:#AD4225;}
	.st4{fill:#C2922E;}
	.st5{fill:#A37C2C;}
	.st6{fill:#C1282D;}
	.st7{fill:#8F381E;}
	.st8{fill:#F79533;}
	.st9{fill:#F4E09C;}
	.st10{fill:#FBCD36;}
</style>
<rect x="358" y="282" class="st0" width="198" height="162"/>
<rect x="376" y="300" class="st1" width="162" height="126"/>
<g>
	<rect x="385" y="228" class="st2" width="144" height="126"/>
	<rect x="385" y="336" class="st3" width="144" height="18"/>
	<rect x="385" y="228" class="st4" width="9" height="27"/>
	<rect x="394" y="228" class="st4" width="18" height="9"/>
	<rect x="520" y="228" class="st4" width="9" height="27"/>
	<rect x="502" y="228" class="st4" width="18" height="9"/>
	<rect x="385" y="309" class="st4" width="9" height="27"/>
	<rect x="394" y="327" class="st4" width="18" height="9"/>
	<rect x="520" y="309" class="st4" width="9" height="27"/>
	<rect x="385" y="336" class="st5" width="9" height="18"/>
	<rect x="520" y="336" class="st5" width="9" height="18"/>
	<rect x="502" y="327" class="st4" width="18" height="9"/>
	<rect x="412" y="246" class="st6" width="9" height="72"/>
	<rect x="493" y="246" class="st6" width="9" height="72"/>
	<rect x="421" y="246" class="st6" width="72" height="9"/>
	<rect x="421" y="309" class="st6" width="72" height="9"/>
	<rect x="394" y="336" class="st5" width="18" height="9"/>
	<rect x="502" y="336" class="st5" width="18" height="9"/>
	<rect x="394" y="354" class="st3" width="18" height="36"/>
	<rect x="502" y="354" class="st3" width="18" height="36"/>
	<rect x="385" y="390" class="st3" width="27" height="9"/>
	<rect x="502" y="390" class="st3" width="27" height="9"/>
	<rect x="412" y="354" class="st3" width="9" height="9"/>
	<rect x="385" y="381" class="st2" width="9" height="9"/>
	<rect x="520" y="381" class="st2" width="9" height="9"/>
	<rect x="394" y="354" class="st7" width="126" height="9"/>
	<rect x="430" y="264" class="st8" width="9" height="36"/>
	<rect x="475" y="264" class="st8" width="9" height="36"/>
	<rect x="439" y="264" class="st8" width="36" height="9"/>
	<rect x="439" y="291" class="st8" width="36" height="9"/>
	<rect x="394" y="228" class="st9" width="9" height="9"/>
	<rect x="511" y="228" class="st9" width="9" height="9"/>
	<rect x="385" y="228" class="st10" width="9" height="9"/>
	<rect x="502" y="228" class="st10" width="9" height="9"/>
	<rect x="394" y="327" class="st9" width="9" height="9"/>
	<rect x="511" y="327" class="st9" width="9" height="9"/>
</g>
</svg>
