<?xml version="1.0" encoding="utf-8"?>
<!-- Generator: Adobe Illustrator 23.0.3, SVG Export Plug-In . SVG Version: 6.00 Build 0)  -->
<svg version="1.1" id="Layer_1" xmlns="http://www.w3.org/2000/svg" xmlns:xlink="http://www.w3.org/1999/xlink" x="0px" y="0px"
	 viewBox="0 0 841.89 595.28" style="enable-background:new 0 0 841.89 595.28;" xml:space="preserve">
<style type="text/css">
	.st0{fill:#EEA222;}
	.st1{fill:#A74E2B;}
	.st2{fill:#BDCD31;}
	.st3{fill:#F26324;}
	.st4{fill:#E6E7E7;}
	.st5{fill:#CC5427;}
	.st6{fill:#E1E440;}
	.st7{fill:#D0D2D3;}
	.st8{fill:#8BA63C;}
	.st9{fill:#414142;}
	.st10{fill:#BBBDBF;}
	.st11{fill:#F29356;}
	.st12{fill:#929497;}
	.st13{fill:#EDB75B;}
	.st14{fill:#B88E45;}
</style>
<rect x="370.5" y="218.5" class="st0" width="288" height="189"/>
<rect x="388.5" y="236.5" class="st1" width="252" height="153"/>
<rect x="397.5" y="245.5" class="st0" width="234" height="135"/>
<rect x="415.5" y="263.5" class="st2" width="198" height="99"/>
<rect x="433.5" y="281.5" class="st3" width="162" height="63"/>
<rect x="433.5" y="281.5" class="st4" width="9" height="18"/>
<rect x="451.5" y="281.5" class="st4" width="9" height="18"/>
<rect x="469.5" y="281.5" class="st4" width="9" height="18"/>
<rect x="487.5" y="281.5" class="st4" width="9" height="18"/>
<rect x="505.5" y="281.5" class="st4" width="9" height="18"/>
<rect x="523.5" y="281.5" class="st4" width="9" height="18"/>
<rect x="541.5" y="281.5" class="st4" width="9" height="18"/>
<rect x="559.5" y="281.5" class="st4" width="9" height="18"/>
<rect x="577.5" y="281.5" class="st4" width="9" height="18"/>
<rect x="433.5" y="335.5" class="st5" width="162" height="9"/>
<rect x="586.5" y="299.5" class="st5" width="9" height="9"/>
<rect x="586.5" y="317.5" class="st5" width="9" height="9"/>
<rect x="433.5" y="299.5" class="st5" width="9" height="9"/>
<rect x="433.5" y="317.5" class="st5" width="9" height="9"/>
<rect x="442.5" y="263.5" class="st6" width="9" height="18"/>
<rect x="460.5" y="263.5" class="st6" width="9" height="18"/>
<rect x="478.5" y="263.5" class="st6" width="9" height="18"/>
<rect x="496.5" y="263.5" class="st6" width="9" height="18"/>
<rect x="514.5" y="263.5" class="st6" width="9" height="18"/>
<rect x="532.5" y="263.5" class="st6" width="9" height="18"/>
<rect x="550.5" y="263.5" class="st6" width="9" height="18"/>
<rect x="568.5" y="263.5" class="st6" width="9" height="18"/>
<rect x="586.5" y="263.5" class="st6" width="9" height="18"/>
<rect x="433.5" y="344.5" class="st6" width="9" height="18"/>
<rect x="451.5" y="344.5" class="st6" width="9" height="18"/>
<rect x="469.5" y="344.5" class="st6" width="9" height="18"/>
<rect x="487.5" y="344.5" class="st6" width="9" height="18"/>
<rect x="505.5" y="344.5" class="st6" width="9" height="18"/>
<rect x="523.5" y="344.5" class="st6" width="9" height="18"/>
<rect x="541.5" y="344.5" class="st6" width="9" height="18"/>
<rect x="559.5" y="344.5" class="st6" width="9" height="18"/>
<rect x="577.5" y="344.5" class="st6" width="9" height="18"/>
<rect x="420" y="322" transform="matrix(6.123234e-17 -1 1 6.123234e-17 93.4997 755.5003)" class="st6" width="9" height="18"/>
<rect x="420" y="304" transform="matrix(6.123234e-17 -1 1 6.123234e-17 111.4997 737.5003)" class="st6" width="9" height="18"/>
<rect x="420" y="286" transform="matrix(6.123234e-17 -1 1 6.123234e-17 129.4997 719.5003)" class="st6" width="9" height="18"/>
<rect x="600" y="322" transform="matrix(6.123234e-17 -1 1 6.123234e-17 273.4997 935.5003)" class="st6" width="9" height="18"/>
<rect x="600" y="304" transform="matrix(6.123234e-17 -1 1 6.123234e-17 291.4997 917.5003)" class="st6" width="9" height="18"/>
<rect x="600" y="286" transform="matrix(6.123234e-17 -1 1 6.123234e-17 309.4997 899.5003)" class="st6" width="9" height="18"/>
<rect x="415.5" y="263.5" class="st7" width="18" height="18"/>
<rect x="595.5" y="263.5" class="st7" width="18" height="18"/>
<rect x="415.5" y="344.5" class="st8" width="18" height="18"/>
<rect x="595.5" y="344.5" class="st8" width="18" height="18"/>
<rect x="415.5" y="263.5" class="st9" width="9" height="9"/>
<rect x="595.5" y="263.5" class="st9" width="9" height="9"/>
<rect x="433.5" y="281.5" class="st10" width="9" height="9"/>
<rect x="451.5" y="281.5" class="st10" width="9" height="9"/>
<rect x="469.5" y="281.5" class="st10" width="9" height="9"/>
<rect x="487.5" y="281.5" class="st10" width="9" height="9"/>
<rect x="505.5" y="281.5" class="st10" width="9" height="9"/>
<rect x="523.5" y="281.5" class="st10" width="9" height="9"/>
<rect x="541.5" y="281.5" class="st10" width="9" height="9"/>
<rect x="559.5" y="281.5" class="st10" width="9" height="9"/>
<rect x="577.5" y="281.5" class="st10" width="9" height="9"/>
<rect x="370.5" y="218.5" class="st3" width="27" height="27"/>
<rect x="379.5" y="227.5" class="st11" width="9" height="9"/>
<rect x="370.5" y="380.5" class="st3" width="27" height="27"/>
<rect x="379.5" y="389.5" class="st11" width="9" height="9"/>
<rect x="631.5" y="218.5" class="st3" width="27" height="27"/>
<rect x="640.5" y="227.5" class="st11" width="9" height="9"/>
<rect x="631.5" y="380.5" class="st3" width="27" height="27"/>
<rect x="640.5" y="389.5" class="st11" width="9" height="9"/>
<rect x="415.5" y="254.5" class="st12" width="27" height="9"/>
<rect x="586.5" y="254.5" class="st12" width="27" height="9"/>
<rect x="406.5" y="218.5" class="st13" width="9" height="18"/>
<rect x="424.5" y="218.5" class="st13" width="9" height="18"/>
<rect x="442.5" y="218.5" class="st13" width="9" height="18"/>
<rect x="460.5" y="218.5" class="st13" width="9" height="18"/>
<rect x="478.5" y="218.5" class="st13" width="9" height="18"/>
<rect x="496.5" y="218.5" class="st13" width="9" height="18"/>
<rect x="514.5" y="218.5" class="st13" width="9" height="18"/>
<rect x="532.5" y="218.5" class="st13" width="9" height="18"/>
<rect x="550.5" y="218.5" class="st13" width="9" height="18"/>
<rect x="568.5" y="218.5" class="st13" width="9" height="18"/>
<rect x="586.5" y="218.5" class="st13" width="9" height="18"/>
<rect x="604.5" y="218.5" class="st13" width="9" height="18"/>
<rect x="622.5" y="218.5" class="st13" width="9" height="18"/>
<rect x="406.5" y="209.5" class="st14" width="9" height="9"/>
<rect x="424.5" y="209.5" class="st14" width="9" height="9"/>
<rect x="442.5" y="209.5" class="st14" width="9" height="9"/>
<rect x="460.5" y="209.5" class="st14" width="9" height="9"/>
<rect x="478.5" y="209.5" class="st14" width="9" height="9"/>
<rect x="496.5" y="209.5" class="st14" width="9" height="9"/>
<rect x="514.5" y="209.5" class="st14" width="9" height="9"/>
<rect x="532.5" y="209.5" class="st14" width="9" height="9"/>
<rect x="550.5" y="209.5" class="st14" width="9" height="9"/>
<rect x="568.5" y="209.5" class="st14" width="9" height="9"/>
<rect x="586.5" y="209.5" class="st14" width="9" height="9"/>
<rect x="604.5" y="209.5" class="st14" width="9" height="9"/>
<rect x="622.5" y="209.5" class="st14" width="9" height="9"/>
<rect x="622.5" y="389.5" transform="matrix(-1 -1.224647e-16 1.224647e-16 -1 1253.9999 806.0002)" class="st13" width="9" height="27"/>
<rect x="604.5" y="389.5" transform="matrix(-1 -1.224647e-16 1.224647e-16 -1 1217.9999 806.0002)" class="st13" width="9" height="27"/>
<rect x="586.5" y="389.5" transform="matrix(-1 -1.224647e-16 1.224647e-16 -1 1181.9999 806.0002)" class="st13" width="9" height="27"/>
<rect x="568.5" y="389.5" transform="matrix(-1 -1.224647e-16 1.224647e-16 -1 1145.9999 806.0002)" class="st13" width="9" height="27"/>
<rect x="550.5" y="389.5" transform="matrix(-1 -1.224647e-16 1.224647e-16 -1 1109.9999 806.0002)" class="st13" width="9" height="27"/>
<rect x="532.5" y="389.5" transform="matrix(-1 -1.224647e-16 1.224647e-16 -1 1073.9999 806.0002)" class="st13" width="9" height="27"/>
<rect x="514.5" y="389.5" transform="matrix(-1 -1.224647e-16 1.224647e-16 -1 1037.9999 806.0002)" class="st13" width="9" height="27"/>
<rect x="496.5" y="389.5" transform="matrix(-1 -1.224647e-16 1.224647e-16 -1 1001.9999 806.0002)" class="st13" width="9" height="27"/>
<rect x="478.5" y="389.5" transform="matrix(-1 -1.224647e-16 1.224647e-16 -1 965.9999 806.0002)" class="st13" width="9" height="27"/>
<rect x="460.5" y="389.5" transform="matrix(-1 -1.224647e-16 1.224647e-16 -1 929.9999 806.0002)" class="st13" width="9" height="27"/>
<rect x="442.5" y="389.5" transform="matrix(-1 -1.224647e-16 1.224647e-16 -1 893.9999 806.0002)" class="st13" width="9" height="27"/>
<rect x="424.5" y="389.5" transform="matrix(-1 -1.224647e-16 1.224647e-16 -1 857.9999 806.0002)" class="st13" width="9" height="27"/>
<rect x="406.5" y="389.5" transform="matrix(-1 -1.224647e-16 1.224647e-16 -1 821.9999 806.0002)" class="st13" width="9" height="27"/>
<rect x="649.5" y="236.5" transform="matrix(-1.836970e-16 1 -1 -1.836970e-16 904.0003 -403.9997)" class="st13" width="9" height="27"/>
<rect x="649.5" y="254.5" transform="matrix(-1.836970e-16 1 -1 -1.836970e-16 922.0003 -385.9997)" class="st13" width="9" height="27"/>
<rect x="649.5" y="272.5" transform="matrix(-1.836970e-16 1 -1 -1.836970e-16 940.0003 -367.9997)" class="st13" width="9" height="27"/>
<rect x="649.5" y="290.5" transform="matrix(-1.836970e-16 1 -1 -1.836970e-16 958.0003 -349.9997)" class="st13" width="9" height="27"/>
<rect x="649.5" y="308.5" transform="matrix(-1.836970e-16 1 -1 -1.836970e-16 976.0003 -331.9997)" class="st13" width="9" height="27"/>
<rect x="649.5" y="326.5" transform="matrix(-1.836970e-16 1 -1 -1.836970e-16 994.0003 -313.9997)" class="st13" width="9" height="27"/>
<rect x="649.5" y="344.5" transform="matrix(-1.836970e-16 1 -1 -1.836970e-16 1012.0003 -295.9997)" class="st13" width="9" height="27"/>
<rect x="649.5" y="362.5" transform="matrix(-1.836970e-16 1 -1 -1.836970e-16 1030.0004 -277.9997)" class="st13" width="9" height="27"/>
<rect x="658.5" y="245.5" transform="matrix(-1.836970e-16 1 -1 -1.836970e-16 913.0003 -412.9997)" class="st14" width="9" height="9"/>
<rect x="658.5" y="263.5" transform="matrix(-1.836970e-16 1 -1 -1.836970e-16 931.0003 -394.9997)" class="st14" width="9" height="9"/>
<rect x="658.5" y="281.5" transform="matrix(-1.836970e-16 1 -1 -1.836970e-16 949.0003 -376.9997)" class="st14" width="9" height="9"/>
<rect x="658.5" y="299.5" transform="matrix(-1.836970e-16 1 -1 -1.836970e-16 967.0003 -358.9997)" class="st14" width="9" height="9"/>
<rect x="658.5" y="317.5" transform="matrix(-1.836970e-16 1 -1 -1.836970e-16 985.0003 -340.9997)" class="st14" width="9" height="9"/>
<rect x="658.5" y="335.5" transform="matrix(-1.836970e-16 1 -1 -1.836970e-16 1003.0003 -322.9997)" class="st14" width="9" height="9"/>
<rect x="658.5" y="353.5" transform="matrix(-1.836970e-16 1 -1 -1.836970e-16 1021.0003 -304.9997)" class="st14" width="9" height="9"/>
<rect x="658.5" y="371.5" transform="matrix(-1.836970e-16 1 -1 -1.836970e-16 1039.0004 -286.9997)" class="st14" width="9" height="9"/>
<rect x="370.5" y="362.5" transform="matrix(6.123234e-17 -1 1 6.123234e-17 -1.0005 751.0005)" class="st13" width="9" height="27"/>
<rect x="370.5" y="344.5" transform="matrix(6.123234e-17 -1 1 6.123234e-17 16.9995 733.0005)" class="st13" width="9" height="27"/>
<rect x="370.5" y="326.5" transform="matrix(6.123234e-17 -1 1 6.123234e-17 34.9995 715.0005)" class="st13" width="9" height="27"/>
<rect x="370.5" y="308.5" transform="matrix(6.123234e-17 -1 1 6.123234e-17 52.9995 697.0005)" class="st13" width="9" height="27"/>
<rect x="370.5" y="290.5" transform="matrix(6.123234e-17 -1 1 6.123234e-17 70.9995 679.0005)" class="st13" width="9" height="27"/>
<rect x="370.5" y="272.5" transform="matrix(6.123234e-17 -1 1 6.123234e-17 88.9995 661.0005)" class="st13" width="9" height="27"/>
<rect x="370.5" y="254.5" transform="matrix(6.123234e-17 -1 1 6.123234e-17 106.9995 643.0005)" class="st13" width="9" height="27"/>
<rect x="370.5" y="236.5" transform="matrix(6.123234e-17 -1 1 6.123234e-17 124.9995 625.0005)" class="st13" width="9" height="27"/>
<rect x="361.5" y="371.5" transform="matrix(6.123234e-17 -1 1 6.123234e-17 -10.0003 742.0003)" class="st14" width="9" height="9"/>
<rect x="361.5" y="353.5" transform="matrix(6.123234e-17 -1 1 6.123234e-17 7.9997 724.0003)" class="st14" width="9" height="9"/>
<rect x="361.5" y="335.5" transform="matrix(6.123234e-17 -1 1 6.123234e-17 25.9997 706.0003)" class="st14" width="9" height="9"/>
<rect x="361.5" y="317.5" transform="matrix(6.123234e-17 -1 1 6.123234e-17 43.9997 688.0003)" class="st14" width="9" height="9"/>
<rect x="361.5" y="299.5" transform="matrix(6.123234e-17 -1 1 6.123234e-17 61.9997 670.0003)" class="st14" width="9" height="9"/>
<rect x="361.5" y="281.5" transform="matrix(6.123234e-17 -1 1 6.123234e-17 79.9997 652.0003)" class="st14" width="9" height="9"/>
<rect x="361.5" y="263.5" transform="matrix(6.123234e-17 -1 1 6.123234e-17 97.9997 634.0003)" class="st14" width="9" height="9"/>
<rect x="361.5" y="245.5" transform="matrix(6.123234e-17 -1 1 6.123234e-17 115.9997 616.0003)" class="st14" width="9" height="9"/>
<rect x="442.5" y="326.5" class="st4" width="9" height="18"/>
<rect x="460.5" y="326.5" class="st4" width="9" height="18"/>
<rect x="478.5" y="326.5" class="st4" width="9" height="18"/>
<rect x="496.5" y="326.5" class="st4" width="9" height="18"/>
<rect x="514.5" y="326.5" class="st4" width="9" height="18"/>
<rect x="532.5" y="326.5" class="st4" width="9" height="18"/>
<rect x="550.5" y="326.5" class="st4" width="9" height="18"/>
<rect x="568.5" y="326.5" class="st4" width="9" height="18"/>
<rect x="442.5" y="335.5" class="st10" width="9" height="9"/>
<rect x="460.5" y="335.5" class="st10" width="9" height="9"/>
<rect x="478.5" y="335.5" class="st10" width="9" height="9"/>
<rect x="496.5" y="335.5" class="st10" width="9" height="9"/>
<rect x="514.5" y="335.5" class="st10" width="9" height="9"/>
<rect x="532.5" y="335.5" class="st10" width="9" height="9"/>
<rect x="550.5" y="335.5" class="st10" width="9" height="9"/>
<rect x="568.5" y="335.5" class="st10" width="9" height="9"/>
</svg>
