<?xml version="1.0" encoding="utf-8"?>
<!-- Generator: Adobe Illustrator 23.0.3, SVG Export Plug-In . SVG Version: 6.00 Build 0)  -->
<svg version="1.1" id="Layer_1" xmlns="http://www.w3.org/2000/svg" xmlns:xlink="http://www.w3.org/1999/xlink" x="0px" y="0px"
	 viewBox="0 0 841.89 595.28" style="enable-background:new 0 0 841.89 595.28;" xml:space="preserve">
<style type="text/css">
	.st0{fill:#EEA222;}
	.st1{fill:#A74E2B;}
	.st2{fill:#BDCD31;}
	.st3{fill:#F26324;}
	.st4{fill:#A34423;}
	.st5{fill:#E1E440;}
	.st6{fill:#D0D2D3;}
	.st7{fill:#8BA63C;}
	.st8{fill:#414142;}
	.st9{fill:#F29356;}
	.st10{fill:#929497;}
	.st11{fill:#EDB75B;}
	.st12{fill:#B88E45;}
</style>
<rect x="375" y="213.5" class="st0" width="288" height="189"/>
<rect x="393" y="231.5" class="st1" width="252" height="153"/>
<rect x="402" y="240.5" class="st0" width="234" height="135"/>
<rect x="420" y="258.5" class="st2" width="198" height="99"/>
<rect x="438" y="276.5" class="st3" width="162" height="63"/>
<rect x="447" y="303.5" class="st4" width="144" height="9"/>
<rect x="447" y="258.5" class="st5" width="9" height="18"/>
<rect x="465" y="258.5" class="st5" width="9" height="18"/>
<rect x="483" y="258.5" class="st5" width="9" height="18"/>
<rect x="501" y="258.5" class="st5" width="9" height="18"/>
<rect x="519" y="258.5" class="st5" width="9" height="18"/>
<rect x="537" y="258.5" class="st5" width="9" height="18"/>
<rect x="555" y="258.5" class="st5" width="9" height="18"/>
<rect x="573" y="258.5" class="st5" width="9" height="18"/>
<rect x="591" y="258.5" class="st5" width="9" height="18"/>
<rect x="438" y="339.5" class="st5" width="9" height="18"/>
<rect x="456" y="339.5" class="st5" width="9" height="18"/>
<rect x="474" y="339.5" class="st5" width="9" height="18"/>
<rect x="492" y="339.5" class="st5" width="9" height="18"/>
<rect x="510" y="339.5" class="st5" width="9" height="18"/>
<rect x="528" y="339.5" class="st5" width="9" height="18"/>
<rect x="546" y="339.5" class="st5" width="9" height="18"/>
<rect x="564" y="339.5" class="st5" width="9" height="18"/>
<rect x="582" y="339.5" class="st5" width="9" height="18"/>
<rect x="424.5" y="317" transform="matrix(6.123234e-17 -1 1 6.123234e-17 102.9997 755.0001)" class="st5" width="9" height="18"/>
<rect x="424.5" y="299" transform="matrix(6.123234e-17 -1 1 6.123234e-17 120.9997 737.0001)" class="st5" width="9" height="18"/>
<rect x="424.5" y="281" transform="matrix(6.123234e-17 -1 1 6.123234e-17 138.9997 719.0001)" class="st5" width="9" height="18"/>
<rect x="604.5" y="317" transform="matrix(6.123234e-17 -1 1 6.123234e-17 282.9997 935.0001)" class="st5" width="9" height="18"/>
<rect x="604.5" y="299" transform="matrix(6.123234e-17 -1 1 6.123234e-17 300.9997 917.0001)" class="st5" width="9" height="18"/>
<rect x="604.5" y="281" transform="matrix(6.123234e-17 -1 1 6.123234e-17 318.9997 899.0001)" class="st5" width="9" height="18"/>
<rect x="420" y="258.5" class="st6" width="18" height="18"/>
<rect x="600" y="258.5" class="st6" width="18" height="18"/>
<rect x="420" y="339.5" class="st7" width="18" height="18"/>
<rect x="600" y="339.5" class="st7" width="18" height="18"/>
<rect x="429" y="258.5" class="st8" width="9" height="9"/>
<rect x="609" y="258.5" class="st8" width="9" height="9"/>
<rect x="375" y="213.5" class="st3" width="27" height="27"/>
<rect x="384" y="222.5" class="st9" width="9" height="9"/>
<rect x="375" y="375.5" class="st3" width="27" height="27"/>
<rect x="384" y="384.5" class="st9" width="9" height="9"/>
<rect x="636" y="213.5" class="st3" width="27" height="27"/>
<rect x="645" y="222.5" class="st9" width="9" height="9"/>
<rect x="636" y="375.5" class="st3" width="27" height="27"/>
<rect x="645" y="384.5" class="st9" width="9" height="9"/>
<rect x="420" y="249.5" class="st10" width="27" height="9"/>
<rect x="591" y="249.5" class="st10" width="27" height="9"/>
<rect x="411" y="213.5" class="st11" width="9" height="18"/>
<rect x="429" y="213.5" class="st11" width="9" height="18"/>
<rect x="447" y="213.5" class="st11" width="9" height="18"/>
<rect x="465" y="213.5" class="st11" width="9" height="18"/>
<rect x="483" y="213.5" class="st11" width="9" height="18"/>
<rect x="501" y="213.5" class="st11" width="9" height="18"/>
<rect x="519" y="213.5" class="st11" width="9" height="18"/>
<rect x="537" y="213.5" class="st11" width="9" height="18"/>
<rect x="555" y="213.5" class="st11" width="9" height="18"/>
<rect x="573" y="213.5" class="st11" width="9" height="18"/>
<rect x="591" y="213.5" class="st11" width="9" height="18"/>
<rect x="609" y="213.5" class="st11" width="9" height="18"/>
<rect x="627" y="213.5" class="st11" width="9" height="18"/>
<rect x="627" y="384.5" transform="matrix(-1 -1.224647e-16 1.224647e-16 -1 1262.9998 796)" class="st11" width="9" height="27"/>
<rect x="609" y="384.5" transform="matrix(-1 -1.224647e-16 1.224647e-16 -1 1226.9998 796)" class="st11" width="9" height="27"/>
<rect x="591" y="384.5" transform="matrix(-1 -1.224647e-16 1.224647e-16 -1 1190.9998 796)" class="st11" width="9" height="27"/>
<rect x="573" y="384.5" transform="matrix(-1 -1.224647e-16 1.224647e-16 -1 1154.9998 796)" class="st11" width="9" height="27"/>
<rect x="555" y="384.5" transform="matrix(-1 -1.224647e-16 1.224647e-16 -1 1118.9998 796)" class="st11" width="9" height="27"/>
<rect x="537" y="384.5" transform="matrix(-1 -1.224647e-16 1.224647e-16 -1 1082.9998 796)" class="st11" width="9" height="27"/>
<rect x="519" y="384.5" transform="matrix(-1 -1.224647e-16 1.224647e-16 -1 1046.9998 796)" class="st11" width="9" height="27"/>
<rect x="501" y="384.5" transform="matrix(-1 -1.224647e-16 1.224647e-16 -1 1010.9997 796)" class="st11" width="9" height="27"/>
<rect x="483" y="384.5" transform="matrix(-1 -1.224647e-16 1.224647e-16 -1 974.9997 796)" class="st11" width="9" height="27"/>
<rect x="465" y="384.5" transform="matrix(-1 -1.224647e-16 1.224647e-16 -1 938.9997 796)" class="st11" width="9" height="27"/>
<rect x="447" y="384.5" transform="matrix(-1 -1.224647e-16 1.224647e-16 -1 902.9997 796)" class="st11" width="9" height="27"/>
<rect x="429" y="384.5" transform="matrix(-1 -1.224647e-16 1.224647e-16 -1 866.9997 796)" class="st11" width="9" height="27"/>
<rect x="411" y="384.5" transform="matrix(-1 -1.224647e-16 1.224647e-16 -1 830.9997 796)" class="st11" width="9" height="27"/>
<rect x="627" y="402.5" transform="matrix(-1 -1.224647e-16 1.224647e-16 -1 1262.9999 814.0004)" class="st12" width="9" height="9"/>
<rect x="609" y="402.5" transform="matrix(-1 -1.224647e-16 1.224647e-16 -1 1226.9999 814.0004)" class="st12" width="9" height="9"/>
<rect x="591" y="402.5" transform="matrix(-1 -1.224647e-16 1.224647e-16 -1 1190.9999 814.0004)" class="st12" width="9" height="9"/>
<rect x="573" y="402.5" transform="matrix(-1 -1.224647e-16 1.224647e-16 -1 1154.9999 814.0004)" class="st12" width="9" height="9"/>
<rect x="555" y="402.5" transform="matrix(-1 -1.224647e-16 1.224647e-16 -1 1118.9999 814.0004)" class="st12" width="9" height="9"/>
<rect x="537" y="402.5" transform="matrix(-1 -1.224647e-16 1.224647e-16 -1 1082.9999 814.0004)" class="st12" width="9" height="9"/>
<rect x="519" y="402.5" transform="matrix(-1 -1.224647e-16 1.224647e-16 -1 1046.9999 814.0004)" class="st12" width="9" height="9"/>
<rect x="501" y="402.5" transform="matrix(-1 -1.224647e-16 1.224647e-16 -1 1010.9999 814.0004)" class="st12" width="9" height="9"/>
<rect x="483" y="402.5" transform="matrix(-1 -1.224647e-16 1.224647e-16 -1 974.9999 814.0004)" class="st12" width="9" height="9"/>
<rect x="465" y="402.5" transform="matrix(-1 -1.224647e-16 1.224647e-16 -1 938.9999 814.0004)" class="st12" width="9" height="9"/>
<rect x="447" y="402.5" transform="matrix(-1 -1.224647e-16 1.224647e-16 -1 902.9999 814.0004)" class="st12" width="9" height="9"/>
<rect x="429" y="402.5" transform="matrix(-1 -1.224647e-16 1.224647e-16 -1 866.9999 814.0004)" class="st12" width="9" height="9"/>
<rect x="411" y="402.5" transform="matrix(-1 -1.224647e-16 1.224647e-16 -1 830.9999 814.0004)" class="st12" width="9" height="9"/>
<rect x="654" y="231.5" transform="matrix(-1.836970e-16 1 -1 -1.836970e-16 903.5001 -413.4997)" class="st11" width="9" height="27"/>
<rect x="654" y="249.5" transform="matrix(-1.836970e-16 1 -1 -1.836970e-16 921.5001 -395.4997)" class="st11" width="9" height="27"/>
<rect x="654" y="267.5" transform="matrix(-1.836970e-16 1 -1 -1.836970e-16 939.5001 -377.4997)" class="st11" width="9" height="27"/>
<rect x="654" y="285.5" transform="matrix(-1.836970e-16 1 -1 -1.836970e-16 957.5001 -359.4997)" class="st11" width="9" height="27"/>
<rect x="654" y="303.5" transform="matrix(-1.836970e-16 1 -1 -1.836970e-16 975.5001 -341.4997)" class="st11" width="9" height="27"/>
<rect x="654" y="321.5" transform="matrix(-1.836970e-16 1 -1 -1.836970e-16 993.5001 -323.4997)" class="st11" width="9" height="27"/>
<rect x="654" y="339.5" transform="matrix(-1.836970e-16 1 -1 -1.836970e-16 1011.5001 -305.4997)" class="st11" width="9" height="27"/>
<rect x="654" y="357.5" transform="matrix(-1.836970e-16 1 -1 -1.836970e-16 1029.5001 -287.4997)" class="st11" width="9" height="27"/>
<rect x="663" y="240.5" transform="matrix(-1.836970e-16 1 -1 -1.836970e-16 912.5001 -422.4997)" class="st12" width="9" height="9"/>
<rect x="663" y="258.5" transform="matrix(-1.836970e-16 1 -1 -1.836970e-16 930.5001 -404.4997)" class="st12" width="9" height="9"/>
<rect x="663" y="276.5" transform="matrix(-1.836970e-16 1 -1 -1.836970e-16 948.5001 -386.4997)" class="st12" width="9" height="9"/>
<rect x="663" y="294.5" transform="matrix(-1.836970e-16 1 -1 -1.836970e-16 966.5001 -368.4997)" class="st12" width="9" height="9"/>
<rect x="663" y="312.5" transform="matrix(-1.836970e-16 1 -1 -1.836970e-16 984.5001 -350.4997)" class="st12" width="9" height="9"/>
<rect x="663" y="330.5" transform="matrix(-1.836970e-16 1 -1 -1.836970e-16 1002.5001 -332.4997)" class="st12" width="9" height="9"/>
<rect x="663" y="348.5" transform="matrix(-1.836970e-16 1 -1 -1.836970e-16 1020.5001 -314.4997)" class="st12" width="9" height="9"/>
<rect x="663" y="366.5" transform="matrix(-1.836970e-16 1 -1 -1.836970e-16 1038.5001 -296.4997)" class="st12" width="9" height="9"/>
<rect x="375" y="357.5" transform="matrix(6.123234e-17 -1 1 6.123234e-17 8.4996 750.5004)" class="st11" width="9" height="27"/>
<rect x="375" y="339.5" transform="matrix(6.123234e-17 -1 1 6.123234e-17 26.4996 732.5004)" class="st11" width="9" height="27"/>
<rect x="375" y="321.5" transform="matrix(6.123234e-17 -1 1 6.123234e-17 44.4996 714.5004)" class="st11" width="9" height="27"/>
<rect x="375" y="303.5" transform="matrix(6.123234e-17 -1 1 6.123234e-17 62.4996 696.5004)" class="st11" width="9" height="27"/>
<rect x="375" y="285.5" transform="matrix(6.123234e-17 -1 1 6.123234e-17 80.4996 678.5004)" class="st11" width="9" height="27"/>
<rect x="375" y="267.5" transform="matrix(6.123234e-17 -1 1 6.123234e-17 98.4996 660.5004)" class="st11" width="9" height="27"/>
<rect x="375" y="249.5" transform="matrix(6.123234e-17 -1 1 6.123234e-17 116.4996 642.5004)" class="st11" width="9" height="27"/>
<rect x="375" y="231.5" transform="matrix(6.123234e-17 -1 1 6.123234e-17 134.4996 624.5004)" class="st11" width="9" height="27"/>
<rect x="366" y="366.5" transform="matrix(6.123234e-17 -1 1 6.123234e-17 -0.5003 741.5001)" class="st12" width="9" height="9"/>
<rect x="366" y="348.5" transform="matrix(6.123234e-17 -1 1 6.123234e-17 17.4997 723.5001)" class="st12" width="9" height="9"/>
<rect x="366" y="330.5" transform="matrix(6.123234e-17 -1 1 6.123234e-17 35.4997 705.5001)" class="st12" width="9" height="9"/>
<rect x="366" y="312.5" transform="matrix(6.123234e-17 -1 1 6.123234e-17 53.4997 687.5001)" class="st12" width="9" height="9"/>
<rect x="366" y="294.5" transform="matrix(6.123234e-17 -1 1 6.123234e-17 71.4997 669.5001)" class="st12" width="9" height="9"/>
<rect x="366" y="276.5" transform="matrix(6.123234e-17 -1 1 6.123234e-17 89.4997 651.5001)" class="st12" width="9" height="9"/>
<rect x="366" y="258.5" transform="matrix(6.123234e-17 -1 1 6.123234e-17 107.4997 633.5001)" class="st12" width="9" height="9"/>
<rect x="366" y="240.5" transform="matrix(6.123234e-17 -1 1 6.123234e-17 125.4997 615.5001)" class="st12" width="9" height="9"/>
<rect x="438" y="294.5" class="st4" width="9" height="9"/>
<rect x="591" y="294.5" class="st4" width="9" height="9"/>
</svg>
