<?xml version="1.0" encoding="utf-8"?>
<!-- Generator: Adobe Illustrator 23.0.3, SVG Export Plug-In . SVG Version: 6.00 Build 0)  -->
<svg version="1.1" id="Layer_1" xmlns="http://www.w3.org/2000/svg" xmlns:xlink="http://www.w3.org/1999/xlink" x="0px" y="0px"
	 viewBox="0 0 841.89 595.28" style="enable-background:new 0 0 841.89 595.28;" xml:space="preserve">
<style type="text/css">
	.st0{fill:#603A17;}
	.st1{fill:#754D29;}
	.st2{fill:#C2922E;}
	.st3{fill:#EDCF88;}
	.st4{fill:#F3E5D0;}
	.st5{fill:#F0D9AC;}
	.st6{fill:#E2C676;}
	.st7{fill:#808184;}
	.st8{fill:#C9974D;}
	.st9{fill:#EAC17D;}
	.st10{fill:#EF4137;}
	.st11{fill:#726659;}
	.st12{fill:#F15B2A;}
	.st13{fill:#FBCD36;}
	.st14{fill:#EE7069;}
</style>
<g>
	<rect x="435" y="322.5" class="st0" width="36" height="9"/>
	<rect x="448.5" y="327" transform="matrix(6.123234e-17 -1 1 6.123234e-17 117 789)" class="st1" width="9" height="18"/>
	<rect x="471" y="313.26" class="st0" width="72" height="9"/>
	<rect x="516" y="313.26" class="st2" width="27" height="9"/>
	<rect x="363" y="313.5" transform="matrix(-1 -1.224647e-16 1.224647e-16 -1 798 636)" class="st0" width="72" height="9"/>
	<rect x="363" y="313.5" transform="matrix(-1 -1.224647e-16 1.224647e-16 -1 753 636)" class="st2" width="27" height="9"/>
	<rect x="435" y="304.5" class="st3" width="36" height="18"/>
	<rect x="471" y="295.5" class="st3" width="63" height="18"/>
	<rect x="372" y="295.5" class="st3" width="63" height="18"/>
	<rect x="372" y="214.5" class="st4" width="63" height="81"/>
	<rect x="471" y="214.5" class="st4" width="63" height="81"/>
	<rect x="444" y="223.5" class="st5" width="18" height="81"/>
	<rect x="363" y="223.5" class="st1" width="9" height="90"/>
	<rect x="534" y="223.5" class="st1" width="9" height="90"/>
	<rect x="534" y="286.5" class="st6" width="9" height="27"/>
	<rect x="363" y="286.5" class="st6" width="9" height="27"/>
	<rect x="534" y="223.5" class="st6" width="9" height="27"/>
	<rect x="363" y="223.5" class="st6" width="9" height="27"/>
	<rect x="435" y="313.5" class="st7" width="36" height="9"/>
	<rect x="453" y="223.5" class="st8" width="9" height="81"/>
	<polygon class="st9" points="444,313.5 435,313.5 435,214.5 444,223.5 	"/>
	<polygon class="st9" points="471,313.5 462,313.5 462,223.5 471,214.5 	"/>
	<rect x="372" y="304.5" class="st8" width="63" height="9"/>
	<rect x="471" y="304.5" class="st8" width="63" height="9"/>
	<rect x="381" y="223.5" class="st10" width="18" height="27"/>
	<rect x="408" y="241.5" class="st11" width="18" height="9"/>
	<rect x="381" y="259.5" class="st11" width="45" height="9"/>
	<rect x="381" y="277.5" class="st11" width="45" height="9"/>
	<rect x="408" y="223.5" class="st11" width="18" height="9"/>
	<rect x="480" y="259.5" class="st11" width="45" height="9"/>
	<rect x="480" y="277.5" class="st11" width="45" height="9"/>
	<rect x="516" y="223.5" class="st12" width="9" height="27"/>
	<rect x="480" y="223.5" class="st11" width="27" height="9"/>
	<rect x="480" y="241.5" class="st11" width="27" height="9"/>
	<rect x="381" y="223.5" class="st13" width="9" height="18"/>
	<polygon class="st10" points="498,331.5 489,322.5 480,331.5 480,214.5 498,214.5 	"/>
	<rect x="480" y="214.5" class="st14" width="18" height="81"/>
</g>
</svg>
