<?xml version="1.0" encoding="utf-8"?>
<!-- Generator: Adobe Illustrator 23.0.3, SVG Export Plug-In . SVG Version: 6.00 Build 0)  -->
<svg version="1.1" id="Layer_1" xmlns="http://www.w3.org/2000/svg" xmlns:xlink="http://www.w3.org/1999/xlink" x="0px" y="0px"
	 viewBox="0 0 841.89 595.28" style="enable-background:new 0 0 841.89 595.28;" xml:space="preserve">
<style type="text/css">
	.st0{fill:#A9BB3B;}
	.st1{fill:#7B923A;}
	.st2{fill:#BF822B;}
	.st3{fill:#E6E7E7;}
</style>
<g>
	<rect x="384.5" y="245.5" class="st0" width="27" height="45"/>
	<polygon class="st0" points="393.5,299.5 375.5,299.5 375.5,236.5 384.5,236.5 393.5,245.5 	"/>
	<polygon class="st1" points="420.5,299.5 402.5,299.5 402.5,245.5 411.5,236.5 420.5,236.5 	"/>
	<polygon class="st0" points="375.5,299.5 366.5,290.5 366.5,245.5 375.5,236.5 	"/>
	<polygon class="st1" points="429.5,290.5 420.5,299.5 420.5,236.5 429.5,245.5 	"/>
	<polygon class="st2" points="402.5,245.5 393.5,245.5 393.5,227.5 402.5,218.5 	"/>
	<rect x="402.5" y="218.5" class="st2" width="9" height="9"/>
	<rect x="375.5" y="245.5" class="st3" width="9" height="18"/>
	<rect x="375.5" y="272.5" class="st3" width="9" height="9"/>
</g>
</svg>
