<?xml version="1.0" encoding="utf-8"?>
<!-- Generator: Adobe Illustrator 23.0.3, SVG Export Plug-In . SVG Version: 6.00 Build 0)  -->
<svg version="1.1" id="Layer_1" xmlns="http://www.w3.org/2000/svg" xmlns:xlink="http://www.w3.org/1999/xlink" x="0px" y="0px"
	 viewBox="0 0 841.89 595.28" style="enable-background:new 0 0 841.89 595.28;" xml:space="preserve">
<style type="text/css">
	.st0{fill:#BBBDBF;}
	.st1{fill:#929497;}
	.st2{fill:#808184;}
	.st3{fill:#E6E7E7;}
	.st4{fill:#D0D2D3;}
	.st5{fill:#9E9FA2;}
	.st6{fill:#EB2227;}
	.st7{fill:#F2F2F2;}
</style>
<g>
	<polygon class="st0" points="375.5,223.5 366.5,232.5 366.5,268.5 375.5,277.5 	"/>
	<polygon class="st0" points="375.5,223.5 384.5,214.5 411.5,214.5 420.5,223.5 	"/>
	<polygon class="st1" points="420.5,277.5 411.5,286.5 384.5,286.5 375.5,277.5 	"/>
	<polygon class="st2" points="420.5,223.5 420.5,277.5 429.5,268.5 429.5,232.5 	"/>
	<rect x="384.5" y="232.5" class="st1" width="27" height="36"/>
	<polygon class="st3" points="420.5,223.5 411.5,232.5 384.5,232.5 375.5,223.5 	"/>
	<polygon class="st2" points="420.5,277.5 411.5,268.5 384.5,268.5 375.5,277.5 	"/>
	<polygon class="st4" points="375.5,277.5 375.5,223.5 384.5,232.5 384.5,268.5 	"/>
	<polygon class="st5" points="411.5,232.5 411.5,268.5 420.5,277.5 420.5,223.5 	"/>
	<polygon class="st6" points="384.5,214.5 366.5,232.5 366.5,268.5 384.5,286.5 411.5,286.5 429.5,268.5 429.5,232.5 411.5,214.5 	
		"/>
	<rect x="402.5" y="232.5" class="st7" width="9" height="18"/>
	<rect x="402.5" y="259.5" class="st7" width="9" height="9"/>
</g>
</svg>
