<?xml version="1.0" encoding="utf-8"?>
<!-- Generator: Adobe Illustrator 23.0.3, SVG Export Plug-In . SVG Version: 6.00 Build 0)  -->
<svg version="1.1" id="Layer_1" xmlns="http://www.w3.org/2000/svg" xmlns:xlink="http://www.w3.org/1999/xlink" x="0px" y="0px"
	 viewBox="0 0 841.89 595.28" style="enable-background:new 0 0 841.89 595.28;" xml:space="preserve">
<style type="text/css">
	.st0{fill:#8A5E3C;}
	.st1{fill:#603A17;}
	.st2{fill:#A87D50;}
	.st3{fill:#754D29;}
	.st4{fill:#EDCF88;}
	.st5{fill:#CEA449;}
	.st6{fill:#C2922E;}
	.st7{fill:#E2C676;}
	.st8{fill:#EF4137;}
	.st9{fill:#EE938C;}
	.st10{fill:#6E6F71;}
	.st11{fill:#F4E09C;}
	.st12{fill:#F0D9AC;}
</style>
<g>
	<rect x="384" y="216.5" class="st0" width="72" height="81"/>
	<rect x="384" y="297.5" class="st1" width="72" height="9"/>
	<rect x="384" y="324.5" class="st1" width="72" height="9"/>
	<rect x="384" y="306.5" class="st1" width="9" height="18"/>
	<rect x="375" y="225.5" class="st2" width="9" height="99"/>
	<rect x="366" y="243.5" class="st0" width="17.15" height="9"/>
	<rect x="366" y="279.5" class="st0" width="17.15" height="9"/>
	<rect x="375" y="306.5" class="st3" width="9" height="18"/>
	<rect x="393" y="306.5" class="st4" width="54" height="18"/>
	<rect x="429" y="216.5" class="st5" width="27" height="9"/>
	<rect x="447" y="225.5" class="st5" width="9" height="18"/>
	<rect x="429" y="288.5" class="st5" width="27" height="9"/>
	<rect x="447" y="270.5" class="st5" width="9" height="18"/>
	<rect x="429" y="297.5" class="st6" width="27" height="9"/>
	<rect x="429" y="324.5" class="st6" width="27" height="9"/>
	<rect x="402" y="234.5" class="st6" width="36" height="45"/>
	<rect x="411" y="243.5" class="st7" width="18" height="27"/>
	<rect x="411" y="243.5" class="st8" width="18" height="18"/>
	<rect x="411" y="243.5" class="st9" width="9" height="9"/>
	<rect x="393" y="306.5" class="st10" width="54" height="9"/>
	<rect x="366" y="252.5" class="st1" width="9" height="18"/>
	<rect x="366" y="288.5" class="st1" width="9" height="18"/>
	<rect x="438" y="216.5" class="st7" width="9" height="9"/>
	<rect x="447" y="225.5" class="st11" width="9" height="9"/>
	<rect x="438" y="288.5" class="st11" width="9" height="9"/>
	<polygon class="st8" points="420,342.5 411,333.5 402,342.5 402,315.5 420,315.5 	"/>
	<rect x="447" y="306.5" class="st12" width="9" height="18"/>
</g>
</svg>
