<?xml version="1.0" encoding="utf-8"?>
<!-- Generator: Adobe Illustrator 23.0.3, SVG Export Plug-In . SVG Version: 6.00 Build 0)  -->
<svg version="1.1" id="Layer_1" xmlns="http://www.w3.org/2000/svg" xmlns:xlink="http://www.w3.org/1999/xlink" x="0px" y="0px"
	 viewBox="0 0 841.89 595.28" style="enable-background:new 0 0 841.89 595.28;" xml:space="preserve">
<style type="text/css">
	.st0{fill:#8A5E3C;}
	.st1{fill:#9A6433;}
	.st2{fill:#A87D50;}
	.st3{fill:#98B43C;}
	.st4{fill:#6F8337;}
	.st5{fill:#FDE79B;}
	.st6{fill:#EEA222;}
	.st7{fill:#CE8D2A;}
	.st8{fill:#FBCD36;}
	.st9{fill:#D1AA2B;}
	.st10{fill:#E0B62D;}
	.st11{fill:#F4E09C;}
	.st12{fill:#CEA449;}
</style>
<g>
	<rect x="366.5" y="219.5" class="st0" width="225" height="108"/>
	<rect x="366.5" y="327.5" class="st0" width="225" height="18"/>
	<rect x="384.5" y="345.5" class="st1" width="18" height="45"/>
	<rect x="555.5" y="345.5" class="st1" width="18" height="45"/>
	<rect x="402.5" y="363.5" class="st0" width="153" height="9"/>
	<rect x="402.5" y="354.5" class="st2" width="153" height="9"/>
	<rect x="411.5" y="219.5" class="st3" width="135" height="108"/>
	<rect x="411.5" y="327.5" class="st4" width="135" height="27"/>
	<rect x="411.5" y="354.5" class="st5" width="9" height="9"/>
	<rect x="429.5" y="354.5" class="st5" width="9" height="9"/>
	<rect x="447.5" y="354.5" class="st5" width="9" height="9"/>
	<rect x="465.5" y="354.5" class="st5" width="9" height="9"/>
	<rect x="483.5" y="354.5" class="st5" width="9" height="9"/>
	<rect x="501.5" y="354.5" class="st5" width="9" height="9"/>
	<rect x="519.5" y="354.5" class="st5" width="9" height="9"/>
	<rect x="537.5" y="354.5" class="st5" width="9" height="9"/>
	<rect x="429.5" y="219.5" class="st6" width="18" height="108"/>
	<rect x="510.5" y="219.5" class="st6" width="18" height="108"/>
	<rect x="465.5" y="219.5" class="st6" width="27" height="108"/>
	<rect x="429.5" y="327.5" class="st7" width="18" height="27"/>
	<rect x="510.5" y="327.5" class="st7" width="18" height="27"/>
	<rect x="465.5" y="327.5" class="st7" width="27" height="27"/>
	<rect x="366.5" y="219.5" class="st8" width="27" height="9"/>
	<rect x="366.5" y="228.5" class="st8" width="9" height="18"/>
	<rect x="564.5" y="219.5" class="st8" width="27" height="9"/>
	<rect x="582.5" y="228.5" class="st8" width="9" height="18"/>
	<rect x="366.5" y="318.5" class="st8" width="27" height="9"/>
	<rect x="366.5" y="300.5" class="st8" width="9" height="18"/>
	<rect x="564.5" y="318.5" class="st8" width="27" height="9"/>
	<rect x="582.5" y="300.5" class="st8" width="9" height="18"/>
	<rect x="366.5" y="327.5" class="st9" width="9" height="18"/>
	<rect x="582.5" y="327.5" class="st9" width="9" height="18"/>
	<rect x="384.5" y="381.5" class="st10" width="18" height="9"/>
	<rect x="555.5" y="381.5" class="st10" width="18" height="9"/>
	<rect x="366.5" y="219.5" class="st11" width="9" height="9"/>
	<rect x="582.5" y="228.5" class="st12" width="9" height="9"/>
	<rect x="366.5" y="246.5" class="st12" width="9" height="54"/>
	<rect x="582.5" y="246.5" class="st12" width="9" height="54"/>
	<rect x="393.5" y="318.5" class="st12" width="18" height="9"/>
	<rect x="546.5" y="318.5" class="st12" width="18" height="9"/>
	<rect x="393.5" y="219.5" class="st12" width="18" height="9"/>
	<rect x="546.5" y="219.5" class="st12" width="18" height="9"/>
</g>
</svg>
