<?xml version="1.0" encoding="utf-8"?>
<!-- Generator: Adobe Illustrator 23.0.3, SVG Export Plug-In . SVG Version: 6.00 Build 0)  -->
<svg version="1.1" id="Layer_1" xmlns="http://www.w3.org/2000/svg" xmlns:xlink="http://www.w3.org/1999/xlink" x="0px" y="0px"
	 viewBox="0 0 841.89 595.28" style="enable-background:new 0 0 841.89 595.28;" xml:space="preserve">
<style type="text/css">
	.st0{fill:#B1ADB1;}
	.st1{fill:#E9E9E9;}
	.st2{fill:#989498;}
	.st3{fill:#D4D2D3;}
	.st4{opacity:0.8;fill:#989498;}
</style>
<g>
	<g>
		<rect x="78" y="215" class="st0" width="1152" height="36"/>
		<g>
			<rect x="78" y="215" class="st1" width="9" height="9"/>
			<rect x="96" y="233" class="st1" width="9" height="9"/>
			<rect x="87" y="224" class="st2" width="9" height="9"/>
			<rect x="105" y="215" class="st2" width="9" height="9"/>
			<rect x="78" y="242" class="st3" width="9" height="9"/>
			<rect x="105" y="233" class="st3" width="9" height="9"/>
			<rect x="105" y="242" class="st2" width="9" height="9"/>
		</g>
		<g>
			<rect x="114" y="215" class="st1" width="9" height="9"/>
			<rect x="132" y="233" class="st1" width="9" height="9"/>
			<rect x="123" y="224" class="st2" width="9" height="9"/>
			<rect x="141" y="215" class="st2" width="9" height="9"/>
			<rect x="114" y="242" class="st3" width="9" height="9"/>
			<rect x="141" y="233" class="st3" width="9" height="9"/>
			<rect x="141" y="242" class="st2" width="9" height="9"/>
		</g>
		<g>
			<rect x="150" y="215" class="st1" width="9" height="9"/>
			<rect x="168" y="233" class="st1" width="9" height="9"/>
			<rect x="159" y="224" class="st2" width="9" height="9"/>
			<rect x="177" y="215" class="st2" width="9" height="9"/>
			<rect x="150" y="242" class="st3" width="9" height="9"/>
			<rect x="177" y="233" class="st3" width="9" height="9"/>
			<rect x="177" y="242" class="st2" width="9" height="9"/>
		</g>
		<g>
			<rect x="186" y="215" class="st1" width="9" height="9"/>
			<rect x="204" y="233" class="st1" width="9" height="9"/>
			<rect x="195" y="224" class="st2" width="9" height="9"/>
			<rect x="213" y="215" class="st2" width="9" height="9"/>
			<rect x="186" y="242" class="st3" width="9" height="9"/>
			<rect x="213" y="233" class="st3" width="9" height="9"/>
			<rect x="213" y="242" class="st2" width="9" height="9"/>
		</g>
		<g>
			<rect x="222" y="215" class="st1" width="9" height="9"/>
			<rect x="240" y="233" class="st1" width="9" height="9"/>
			<rect x="231" y="224" class="st2" width="9" height="9"/>
			<rect x="249" y="215" class="st2" width="9" height="9"/>
			<rect x="222" y="242" class="st3" width="9" height="9"/>
			<rect x="249" y="233" class="st3" width="9" height="9"/>
			<rect x="249" y="242" class="st2" width="9" height="9"/>
		</g>
		<g>
			<rect x="258" y="215" class="st1" width="9" height="9"/>
			<rect x="276" y="233" class="st1" width="9" height="9"/>
			<rect x="267" y="224" class="st2" width="9" height="9"/>
			<rect x="285" y="215" class="st2" width="9" height="9"/>
			<rect x="258" y="242" class="st3" width="9" height="9"/>
			<rect x="285" y="233" class="st3" width="9" height="9"/>
			<rect x="285" y="242" class="st2" width="9" height="9"/>
		</g>
		<g>
			<rect x="294" y="215" class="st1" width="9" height="9"/>
			<rect x="312" y="233" class="st1" width="9" height="9"/>
			<rect x="303" y="224" class="st2" width="9" height="9"/>
			<rect x="321" y="215" class="st2" width="9" height="9"/>
			<rect x="294" y="242" class="st3" width="9" height="9"/>
			<rect x="321" y="233" class="st3" width="9" height="9"/>
			<rect x="321" y="242" class="st2" width="9" height="9"/>
		</g>
		<g>
			<rect x="330" y="215" class="st1" width="9" height="9"/>
			<rect x="348" y="233" class="st1" width="9" height="9"/>
			<rect x="339" y="224" class="st2" width="9" height="9"/>
			<rect x="357" y="215" class="st2" width="9" height="9"/>
			<rect x="330" y="242" class="st3" width="9" height="9"/>
			<rect x="357" y="233" class="st3" width="9" height="9"/>
			<rect x="357" y="242" class="st2" width="9" height="9"/>
		</g>
		<g>
			<rect x="366" y="215" class="st1" width="9" height="9"/>
			<rect x="384" y="233" class="st1" width="9" height="9"/>
			<rect x="375" y="224" class="st2" width="9" height="9"/>
			<rect x="393" y="215" class="st2" width="9" height="9"/>
			<rect x="366" y="242" class="st3" width="9" height="9"/>
			<rect x="393" y="233" class="st3" width="9" height="9"/>
			<rect x="393" y="242" class="st2" width="9" height="9"/>
		</g>
		<g>
			<rect x="402" y="215" class="st1" width="9" height="9"/>
			<rect x="420" y="233" class="st1" width="9" height="9"/>
			<rect x="411" y="224" class="st2" width="9" height="9"/>
			<rect x="429" y="215" class="st2" width="9" height="9"/>
			<rect x="402" y="242" class="st3" width="9" height="9"/>
			<rect x="429" y="233" class="st3" width="9" height="9"/>
			<rect x="429" y="242" class="st2" width="9" height="9"/>
		</g>
		<g>
			<rect x="438" y="215" class="st1" width="9" height="9"/>
			<rect x="456" y="233" class="st1" width="9" height="9"/>
			<rect x="447" y="224" class="st2" width="9" height="9"/>
			<rect x="465" y="215" class="st2" width="9" height="9"/>
			<rect x="438" y="242" class="st3" width="9" height="9"/>
			<rect x="465" y="233" class="st3" width="9" height="9"/>
			<rect x="465" y="242" class="st2" width="9" height="9"/>
		</g>
		<g>
			<rect x="474" y="215" class="st1" width="9" height="9"/>
			<rect x="492" y="233" class="st1" width="9" height="9"/>
			<rect x="483" y="224" class="st2" width="9" height="9"/>
			<rect x="501" y="215" class="st2" width="9" height="9"/>
			<rect x="474" y="242" class="st3" width="9" height="9"/>
			<rect x="501" y="233" class="st3" width="9" height="9"/>
			<rect x="501" y="242" class="st2" width="9" height="9"/>
		</g>
		<g>
			<rect x="510" y="215" class="st1" width="9" height="9"/>
			<rect x="528" y="233" class="st1" width="9" height="9"/>
			<rect x="519" y="224" class="st2" width="9" height="9"/>
			<rect x="537" y="215" class="st2" width="9" height="9"/>
			<rect x="510" y="242" class="st3" width="9" height="9"/>
			<rect x="537" y="233" class="st3" width="9" height="9"/>
			<rect x="537" y="242" class="st2" width="9" height="9"/>
		</g>
		<g>
			<rect x="546" y="215" class="st1" width="9" height="9"/>
			<rect x="564" y="233" class="st1" width="9" height="9"/>
			<rect x="555" y="224" class="st2" width="9" height="9"/>
			<rect x="573" y="215" class="st2" width="9" height="9"/>
			<rect x="546" y="242" class="st3" width="9" height="9"/>
			<rect x="573" y="233" class="st3" width="9" height="9"/>
			<rect x="573" y="242" class="st2" width="9" height="9"/>
		</g>
		<g>
			<rect x="582" y="215" class="st1" width="9" height="9"/>
			<rect x="600" y="233" class="st1" width="9" height="9"/>
			<rect x="591" y="224" class="st2" width="9" height="9"/>
			<rect x="609" y="215" class="st2" width="9" height="9"/>
			<rect x="582" y="242" class="st3" width="9" height="9"/>
			<rect x="609" y="233" class="st3" width="9" height="9"/>
			<rect x="609" y="242" class="st2" width="9" height="9"/>
		</g>
		<g>
			<rect x="618" y="215" class="st1" width="9" height="9"/>
			<rect x="636" y="233" class="st1" width="9" height="9"/>
			<rect x="627" y="224" class="st2" width="9" height="9"/>
			<rect x="645" y="215" class="st2" width="9" height="9"/>
			<rect x="618" y="242" class="st3" width="9" height="9"/>
			<rect x="645" y="233" class="st3" width="9" height="9"/>
			<rect x="645" y="242" class="st2" width="9" height="9"/>
		</g>
		<g>
			<g>
				<rect x="654" y="215" class="st1" width="9" height="9"/>
				<rect x="672" y="233" class="st1" width="9" height="9"/>
				<rect x="663" y="224" class="st2" width="9" height="9"/>
				<rect x="681" y="215" class="st2" width="9" height="9"/>
				<rect x="654" y="242" class="st3" width="9" height="9"/>
				<rect x="681" y="233" class="st3" width="9" height="9"/>
				<rect x="681" y="242" class="st2" width="9" height="9"/>
			</g>
			<g>
				<rect x="690" y="215" class="st1" width="9" height="9"/>
				<rect x="708" y="233" class="st1" width="9" height="9"/>
				<rect x="699" y="224" class="st2" width="9" height="9"/>
				<rect x="717" y="215" class="st2" width="9" height="9"/>
				<rect x="690" y="242" class="st3" width="9" height="9"/>
				<rect x="717" y="233" class="st3" width="9" height="9"/>
				<rect x="717" y="242" class="st2" width="9" height="9"/>
			</g>
			<g>
				<rect x="726" y="215" class="st1" width="9" height="9"/>
				<rect x="744" y="233" class="st1" width="9" height="9"/>
				<rect x="735" y="224" class="st2" width="9" height="9"/>
				<rect x="753" y="215" class="st2" width="9" height="9"/>
				<rect x="726" y="242" class="st3" width="9" height="9"/>
				<rect x="753" y="233" class="st3" width="9" height="9"/>
				<rect x="753" y="242" class="st2" width="9" height="9"/>
			</g>
			<g>
				<rect x="762" y="215" class="st1" width="9" height="9"/>
				<rect x="780" y="233" class="st1" width="9" height="9"/>
				<rect x="771" y="224" class="st2" width="9" height="9"/>
				<rect x="789" y="215" class="st2" width="9" height="9"/>
				<rect x="762" y="242" class="st3" width="9" height="9"/>
				<rect x="789" y="233" class="st3" width="9" height="9"/>
				<rect x="789" y="242" class="st2" width="9" height="9"/>
			</g>
			<g>
				<rect x="798" y="215" class="st1" width="9" height="9"/>
				<rect x="816" y="233" class="st1" width="9" height="9"/>
				<rect x="807" y="224" class="st2" width="9" height="9"/>
				<rect x="825" y="215" class="st2" width="9" height="9"/>
				<rect x="798" y="242" class="st3" width="9" height="9"/>
				<rect x="825" y="233" class="st3" width="9" height="9"/>
				<rect x="825" y="242" class="st2" width="9" height="9"/>
			</g>
			<g>
				<rect x="834" y="215" class="st1" width="9" height="9"/>
				<rect x="852" y="233" class="st1" width="9" height="9"/>
				<rect x="843" y="224" class="st2" width="9" height="9"/>
				<rect x="861" y="215" class="st2" width="9" height="9"/>
				<rect x="834" y="242" class="st3" width="9" height="9"/>
				<rect x="861" y="233" class="st3" width="9" height="9"/>
				<rect x="861" y="242" class="st2" width="9" height="9"/>
			</g>
			<g>
				<rect x="870" y="215" class="st1" width="9" height="9"/>
				<rect x="888" y="233" class="st1" width="9" height="9"/>
				<rect x="879" y="224" class="st2" width="9" height="9"/>
				<rect x="897" y="215" class="st2" width="9" height="9"/>
				<rect x="870" y="242" class="st3" width="9" height="9"/>
				<rect x="897" y="233" class="st3" width="9" height="9"/>
				<rect x="897" y="242" class="st2" width="9" height="9"/>
			</g>
			<g>
				<rect x="906" y="215" class="st1" width="9" height="9"/>
				<rect x="924" y="233" class="st1" width="9" height="9"/>
				<rect x="915" y="224" class="st2" width="9" height="9"/>
				<rect x="933" y="215" class="st2" width="9" height="9"/>
				<rect x="906" y="242" class="st3" width="9" height="9"/>
				<rect x="933" y="233" class="st3" width="9" height="9"/>
				<rect x="933" y="242" class="st2" width="9" height="9"/>
			</g>
		</g>
		<g>
			<g>
				<rect x="942" y="215" class="st1" width="9" height="9"/>
				<rect x="960" y="233" class="st1" width="9" height="9"/>
				<rect x="951" y="224" class="st2" width="9" height="9"/>
				<rect x="969" y="215" class="st2" width="9" height="9"/>
				<rect x="942" y="242" class="st3" width="9" height="9"/>
				<rect x="969" y="233" class="st3" width="9" height="9"/>
				<rect x="969" y="242" class="st2" width="9" height="9"/>
			</g>
			<g>
				<rect x="978" y="215" class="st1" width="9" height="9"/>
				<rect x="996" y="233" class="st1" width="9" height="9"/>
				<rect x="987" y="224" class="st2" width="9" height="9"/>
				<rect x="1005" y="215" class="st2" width="9" height="9"/>
				<rect x="978" y="242" class="st3" width="9" height="9"/>
				<rect x="1005" y="233" class="st3" width="9" height="9"/>
				<rect x="1005" y="242" class="st2" width="9" height="9"/>
			</g>
			<g>
				<rect x="1014" y="215" class="st1" width="9" height="9"/>
				<rect x="1032" y="233" class="st1" width="9" height="9"/>
				<rect x="1023" y="224" class="st2" width="9" height="9"/>
				<rect x="1041" y="215" class="st2" width="9" height="9"/>
				<rect x="1014" y="242" class="st3" width="9" height="9"/>
				<rect x="1041" y="233" class="st3" width="9" height="9"/>
				<rect x="1041" y="242" class="st2" width="9" height="9"/>
			</g>
			<g>
				<rect x="1050" y="215" class="st1" width="9" height="9"/>
				<rect x="1068" y="233" class="st1" width="9" height="9"/>
				<rect x="1059" y="224" class="st2" width="9" height="9"/>
				<rect x="1077" y="215" class="st2" width="9" height="9"/>
				<rect x="1050" y="242" class="st3" width="9" height="9"/>
				<rect x="1077" y="233" class="st3" width="9" height="9"/>
				<rect x="1077" y="242" class="st2" width="9" height="9"/>
			</g>
			<g>
				<rect x="1086" y="215" class="st1" width="9" height="9"/>
				<rect x="1104" y="233" class="st1" width="9" height="9"/>
				<rect x="1095" y="224" class="st2" width="9" height="9"/>
				<rect x="1113" y="215" class="st2" width="9" height="9"/>
				<rect x="1086" y="242" class="st3" width="9" height="9"/>
				<rect x="1113" y="233" class="st3" width="9" height="9"/>
				<rect x="1113" y="242" class="st2" width="9" height="9"/>
			</g>
			<g>
				<rect x="1122" y="215" class="st1" width="9" height="9"/>
				<rect x="1140" y="233" class="st1" width="9" height="9"/>
				<rect x="1131" y="224" class="st2" width="9" height="9"/>
				<rect x="1149" y="215" class="st2" width="9" height="9"/>
				<rect x="1122" y="242" class="st3" width="9" height="9"/>
				<rect x="1149" y="233" class="st3" width="9" height="9"/>
				<rect x="1149" y="242" class="st2" width="9" height="9"/>
			</g>
			<g>
				<rect x="1158" y="215" class="st1" width="9" height="9"/>
				<rect x="1176" y="233" class="st1" width="9" height="9"/>
				<rect x="1167" y="224" class="st2" width="9" height="9"/>
				<rect x="1185" y="215" class="st2" width="9" height="9"/>
				<rect x="1158" y="242" class="st3" width="9" height="9"/>
				<rect x="1185" y="233" class="st3" width="9" height="9"/>
				<rect x="1185" y="242" class="st2" width="9" height="9"/>
			</g>
			<g>
				<rect x="1194" y="215" class="st1" width="9" height="9"/>
				<rect x="1212" y="233" class="st1" width="9" height="9"/>
				<rect x="1203" y="224" class="st2" width="9" height="9"/>
				<rect x="1221" y="215" class="st2" width="9" height="9"/>
				<rect x="1194" y="242" class="st3" width="9" height="9"/>
				<rect x="1221" y="233" class="st3" width="9" height="9"/>
				<rect x="1221" y="242" class="st2" width="9" height="9"/>
			</g>
		</g>
	</g>
	<rect x="78" y="215" class="st4" width="1152" height="36"/>
</g>
</svg>
