<?xml version="1.0" encoding="utf-8"?>
<!-- Generator: Adobe Illustrator 23.0.3, SVG Export Plug-In . SVG Version: 6.00 Build 0)  -->
<svg version="1.1" id="Layer_1" xmlns="http://www.w3.org/2000/svg" xmlns:xlink="http://www.w3.org/1999/xlink" x="0px" y="0px"
	 viewBox="0 0 841.89 595.28" style="enable-background:new 0 0 841.89 595.28;" xml:space="preserve">
<style type="text/css">
	.st0{fill:#A16834;}
	.st1{fill:#85562A;}
	.st2{fill:#8B592D;}
	.st3{fill:#FBCD36;}
	.st4{fill:#C2922E;}
	.st5{fill:#D1AD2B;}
	.st6{fill:#E2C676;}
	.st7{fill:#8A5E3C;}
	.st8{fill:#A87D50;}
	.st9{fill:#754D29;}
</style>
<rect x="447" y="276.5" class="st0" width="99" height="72"/>
<rect x="402" y="276.5" class="st1" width="45" height="72"/>
<polygon class="st2" points="402,222.5 402,276.5 375,276.5 366,267.5 366,231.5 375,222.5 "/>
<rect x="519" y="276.5" class="st3" width="18" height="72"/>
<rect x="465" y="276.5" class="st3" width="18" height="72"/>
<rect x="483" y="276.5" class="st3" width="36" height="27"/>
<rect x="492" y="276.5" class="st4" width="18" height="18"/>
<rect x="402" y="276.5" class="st5" width="45" height="9"/>
<rect x="447" y="276.5" class="st3" width="18" height="9"/>
<rect x="537" y="276.5" class="st3" width="9" height="9"/>
<rect x="370.5" y="245" transform="matrix(6.123234e-17 -1 1 6.123234e-17 148 647)" class="st5" width="54" height="9"/>
<rect x="492" y="276.5" class="st6" width="9" height="9"/>
<rect x="402" y="222.5" class="st7" width="108" height="54"/>
<rect x="411" y="231.5" class="st8" width="90" height="45"/>
<rect x="483" y="231.5" class="st9" width="18" height="45"/>
</svg>
