<?xml version="1.0" encoding="utf-8"?>
<!-- Generator: Adobe Illustrator 23.0.3, SVG Export Plug-In . SVG Version: 6.00 Build 0)  -->
<svg version="1.1" id="Layer_1" xmlns="http://www.w3.org/2000/svg" xmlns:xlink="http://www.w3.org/1999/xlink" x="0px" y="0px"
	 viewBox="0 0 841.89 595.28" style="enable-background:new 0 0 841.89 595.28;" xml:space="preserve">
<style type="text/css">
	.st0{fill:#A87D50;}
	.st1{fill:#C3996B;}
	.st2{fill:#28A8E0;}
	.st3{fill:#8A5E3C;}
	.st4{fill:#F69320;}
	.st5{fill:#CD972C;}
</style>
<rect x="366.5" y="224" class="st0" width="63" height="36"/>
<rect x="375.5" y="233" class="st1" width="45" height="18"/>
<rect x="366.5" y="260" class="st2" width="63" height="9"/>
<polygon class="st3" points="420.5,278 375.5,278 366.5,269 429.5,269 "/>
<rect x="375.5" y="242" class="st4" width="9" height="9"/>
<rect x="384.5" y="233" class="st4" width="9" height="9"/>
<rect x="393.5" y="224" class="st4" width="9" height="9"/>
<rect x="393.5" y="242" class="st4" width="9" height="9"/>
<rect x="402.5" y="233" class="st4" width="9" height="9"/>
<rect x="411.5" y="242" class="st4" width="9" height="9"/>
<rect x="375.5" y="233" class="st5" width="9" height="9"/>
<rect x="384.5" y="242" class="st5" width="9" height="9"/>
<rect x="393.5" y="233" class="st5" width="9" height="9"/>
<rect x="402.5" y="242" class="st5" width="9" height="9"/>
<rect x="411.5" y="233" class="st5" width="9" height="9"/>
<rect x="402.5" y="224" class="st5" width="9" height="9"/>
<rect x="384.5" y="224" class="st5" width="9" height="9"/>
<rect x="393.5" y="215" class="st5" width="9" height="9"/>
</svg>
