<?xml version="1.0" encoding="utf-8"?>
<!-- Generator: Adobe Illustrator 23.0.3, SVG Export Plug-In . SVG Version: 6.00 Build 0)  -->
<svg version="1.1" id="Layer_1" xmlns="http://www.w3.org/2000/svg" xmlns:xlink="http://www.w3.org/1999/xlink" x="0px" y="0px"
	 viewBox="0 0 841.89 595.28" style="enable-background:new 0 0 841.89 595.28;" xml:space="preserve">
<style type="text/css">
	.st0{fill:#BBBDBF;}
	.st1{fill:#929497;}
	.st2{fill:#808184;}
	.st3{fill:#E6E7E7;}
	.st4{fill:#D0D2D3;}
	.st5{fill:#9E9FA2;}
	.st6{fill:#8CC540;}
	.st7{fill:#F2F2F2;}
</style>
<g>
	<polygon class="st0" points="371.5,225 380.5,216 407.5,216 416.5,225 	"/>
	<polygon class="st1" points="416.5,279 407.5,288 380.5,288 371.5,279 	"/>
	<polygon class="st0" points="371.5,225 362.5,234 362.5,270 371.5,279 	"/>
	<polygon class="st2" points="416.5,225 416.5,279 425.5,270 425.5,234 	"/>
	<rect x="380.5" y="234" class="st1" width="27" height="36"/>
	<polygon class="st3" points="416.5,225 407.5,234 380.5,234 371.5,225 	"/>
	<polygon class="st2" points="416.5,279 407.5,270 380.5,270 371.5,279 	"/>
	<polygon class="st4" points="371.5,279 371.5,225 380.5,234 380.5,270 	"/>
	<polygon class="st5" points="407.5,234 407.5,270 416.5,279 416.5,225 	"/>
	<polygon class="st6" points="380.5,216 362.5,234 362.5,270 380.5,288 407.5,288 425.5,270 425.5,234 407.5,216 	"/>
	<rect x="398.5" y="234" class="st7" width="9" height="18"/>
	<rect x="398.5" y="261" class="st7" width="9" height="9"/>
</g>
</svg>
